<svg width="1024" height="1024" viewBox="0 0 1024 1024" fill="none" xmlns="http://www.w3.org/2000/svg">
<g clip-path="url(#clip0_5298_84192)">
<rect width="1024" height="1024" fill="white"/>
<path d="M516.799 252C564.406 252 603 290.594 603 338.201V746.818C633.343 750.19 660.692 767.97 676.148 795.229L705.54 847.265C716.742 867.07 737.547 879.171 760.004 879.171H766.459C777.768 879.171 786.569 870.271 786.569 858.714V681.964C786.569 638.772 803.427 597.316 833.459 566.713L922.67 476.106C931.073 467.571 944.839 467.576 953.237 476.116C961.433 484.451 961.444 497.815 953.26 506.162L907.989 552.334C922.019 575.721 926.979 604.046 921.432 631.067C916.043 657.383 901.161 680.716 879.823 696.56C864.888 707.628 847.337 714.574 829.147 716.744V761.424L829.2 858.712C829.2 893.765 800.874 922.578 766.468 922.578H760.013C722.352 922.578 687.412 902.121 668.582 868.968L639.19 816.932C631.328 803.102 618.056 793.626 603 790.583V1058.8C603 1106.41 564.406 1145 516.799 1145H175.201C127.594 1145 89 1106.41 89 1058.8V338.201C89.0001 290.594 127.594 252 175.201 252H516.799Z" fill="#142437"/>
<rect x="173" y="340" width="346" height="230" rx="34.91" fill="white"/>
<path d="M302.255 880.938C273.276 881.647 244.469 876.251 217.684 865.096C194.448 854.5 179.564 839.404 174.648 821.433C172.708 814.013 172.478 806.246 173.974 798.723C175.629 790.628 178.709 782.896 183.066 775.892C196.48 755.8 214.51 739.26 235.626 727.673C262.502 712.18 291.611 700.994 321.907 694.517C344.152 689.625 366.851 687.125 389.62 687.061C418.613 686.359 447.432 691.75 474.238 702.889C497.541 713.492 512.459 728.588 517.342 746.546C519.296 754.009 519.526 761.824 518.015 769.391C516.328 777.543 513.211 785.327 508.809 792.378C495.367 812.457 477.321 828.984 456.195 840.563C429.393 856.008 400.346 867.117 370.116 873.481C347.82 878.369 325.073 880.869 302.255 880.938Z" fill="#0873F6"/>
<path d="M866.798 240.969V201.099C866.798 190.633 868.703 179.22 869.672 168.771H867.767C862.038 179.237 857.244 187.792 851.514 199.205L825.689 240.088V241.035L866.798 240.969ZM886.838 317.961C875.777 317.983 866.798 309.022 866.798 297.961V271.486H804.562C793.517 271.486 784.562 262.531 784.562 251.486V244.906L857.06 133.118C860.748 127.432 867.063 124 873.84 124H888.877C899.923 124 908.877 132.954 908.877 144V240.022H917.091C925.756 240.022 932.781 247.047 932.781 255.712C932.781 264.378 925.756 271.403 917.091 271.403H908.877V297.957C908.877 308.987 899.947 317.935 888.917 317.957L886.838 317.961Z" fill="#142437"/>
<path d="M651 318.143V301.503C651 296.281 653.042 291.267 656.69 287.531L675.019 268.758C705.769 236.586 731.701 211.027 731.701 182.641C731.701 167.497 721.127 156.189 700.952 156.189C693.991 156.534 687.112 157.656 680.444 159.524C671.912 161.913 662.343 157.621 660.097 149.051L659.701 147.536C657.994 141.02 661.143 134.133 667.467 131.817C681.237 126.775 695.821 124.12 710.569 124C763.408 124 779.756 152.386 779.756 179.83C779.756 215.788 751.893 245.133 724.031 270.758L709.612 283.984V284.927H769.6C777.332 284.927 783.6 291.195 783.6 298.927V305C783.6 312.732 777.332 319 769.6 319H651.857C651.384 319 651 318.616 651 318.143Z" fill="#142437"/>
</g>
<defs>
<clipPath id="clip0_5298_84192">
<rect width="1024" height="1024" fill="white"/>
</clipPath>
</defs>
</svg>
