<svg width="375" height="812" viewBox="0 0 375 812" fill="none" xmlns="http://www.w3.org/2000/svg">
<g clip-path="url(#clip0_5002_62500)">
<rect width="375" height="812" fill="#F2F8FD"/>
<path fill-rule="evenodd" clip-rule="evenodd" d="M349 76.502C349 75.119 347.881 74 346.5 74C345.143 74 344.037 75.083 344.001 76.435L344.001 76.569C344.037 77.919 345.143 79.002 346.5 79.002C347.881 79.002 349 77.882 349 76.502ZM349 67.501C349 66.119 347.881 65.001 346.5 65.001C345.143 65.001 344.037 66.083 344.001 67.434L344.001 67.568C344.037 68.919 345.143 70.001 346.5 70.001C347.881 70.001 349 68.883 349 67.501ZM349 58.5C349 57.119 347.881 56 346.5 56C345.143 56 344.037 57.083 344.001 58.433L344.001 58.567C344.037 59.919 345.143 61.003 346.5 61.003C347.881 61.003 349 59.882 349 58.5Z" fill="#142437"/>
<path opacity="0.4" d="M340 18H354C354.708 18 355.21 18.0002 355.602 18.0322C355.987 18.0638 356.223 18.1235 356.408 18.2178C356.784 18.4095 357.09 18.7155 357.282 19.0918C357.377 19.2769 357.436 19.5126 357.468 19.8984C357.5 20.2902 357.5 20.7917 357.5 21.5V24C357.5 24.7083 357.5 25.2098 357.468 25.6016C357.436 25.9874 357.377 26.2231 357.282 26.4082C357.09 26.7845 356.784 27.0905 356.408 27.2822C356.223 27.3765 355.987 27.4362 355.602 27.4678C355.21 27.4998 354.708 27.5 354 27.5H340C339.292 27.5 338.79 27.4998 338.398 27.4678C338.013 27.4362 337.777 27.3765 337.592 27.2822C337.216 27.0905 336.91 26.7845 336.718 26.4082C336.623 26.2231 336.564 25.9874 336.532 25.6016C336.5 25.2098 336.5 24.7083 336.5 24V21.5C336.5 20.7917 336.5 20.2902 336.532 19.8984C336.564 19.5126 336.623 19.2769 336.718 19.0918C336.91 18.7155 337.216 18.4095 337.592 18.2178C337.777 18.1235 338.013 18.0638 338.398 18.0322C338.79 18.0002 339.292 18 340 18Z" stroke="#142437"/>
<path opacity="0.4" d="M359 21.002C359.862 21.2241 360.5 22.005 360.5 22.9365C360.5 23.8682 359.862 24.6488 359 24.8711V21.002Z" fill="#142437"/>
<rect x="338" y="19.5" width="18" height="6.5" rx="1" fill="#142437"/>
<path d="M321.122 25.7305C322.398 24.6516 324.266 24.6516 325.542 25.7305C325.606 25.7885 325.643 25.8706 325.645 25.957C325.646 26.0435 325.613 26.1269 325.551 26.1875L323.554 28.2031C323.495 28.2623 323.415 28.2959 323.332 28.2959C323.249 28.2959 323.169 28.2623 323.11 28.2031L321.112 26.1875C321.051 26.1269 321.017 26.0434 321.019 25.957C321.02 25.8706 321.058 25.7884 321.122 25.7305ZM318.457 23.041C321.205 20.485 325.461 20.485 328.209 23.041C328.271 23.1009 328.307 23.1834 328.308 23.2695C328.308 23.3557 328.275 23.4388 328.214 23.5L327.06 24.667C326.941 24.7861 326.748 24.7887 326.626 24.6729C325.724 23.8557 324.549 23.4033 323.332 23.4033C322.115 23.4038 320.942 23.8562 320.04 24.6729C319.918 24.7887 319.725 24.7861 319.606 24.667L318.452 23.5C318.391 23.4389 318.358 23.3556 318.358 23.2695C318.359 23.1834 318.395 23.1009 318.457 23.041ZM315.792 20.3594C320.007 16.3202 326.657 16.32 330.872 20.3594C330.933 20.4193 330.967 20.5015 330.968 20.5869C330.968 20.6725 330.934 20.7547 330.874 20.8154L329.718 21.9824C329.599 22.1019 329.406 22.1031 329.285 21.9854C327.679 20.4586 325.548 19.6075 323.332 19.6074C321.116 19.6074 318.984 20.4585 317.378 21.9854C317.257 22.1033 317.064 22.1021 316.945 21.9824L315.789 20.8154C315.729 20.7547 315.695 20.6725 315.695 20.5869C315.696 20.5014 315.731 20.4193 315.792 20.3594Z" fill="#142437"/>
<path d="M295.668 24.333C296.22 24.333 296.668 24.7807 296.668 25.333V27.333C296.668 27.8851 296.22 28.333 295.668 28.333H294.668C294.116 28.333 293.668 27.8851 293.668 27.333V25.333C293.668 24.7807 294.116 24.333 294.668 24.333H295.668ZM300.335 22.333C300.887 22.3332 301.335 22.7808 301.335 23.333V27.333C301.335 27.885 300.887 28.3328 300.335 28.333H299.335C298.783 28.333 298.335 27.8851 298.335 27.333V23.333C298.335 22.7807 298.783 22.333 299.335 22.333H300.335ZM305.001 19.999C305.553 19.999 306.001 20.4469 306.001 20.999V27.333C306.001 27.8851 305.553 28.333 305.001 28.333H304.001C303.449 28.3328 303.001 27.885 303.001 27.333V20.999C303.001 20.447 303.449 19.9992 304.001 19.999H305.001ZM309.668 17.666C310.22 17.666 310.668 18.1137 310.668 18.666V27.333C310.668 27.8851 310.22 28.333 309.668 28.333H308.668C308.116 28.333 307.668 27.8851 307.668 27.333V18.666C307.668 18.1137 308.116 17.666 308.668 17.666H309.668Z" fill="#142437"/>
<path d="M31.2416 28.3301V19.6655H31.1171L28.4877 21.5112V19.6948L31.2489 17.7612H33.1313V28.3301H31.2416ZM35.7316 20.8521C35.7316 19.8657 36.0734 19.0601 36.757 18.4351C37.4455 17.8101 38.3317 17.4976 39.4157 17.4976C40.4606 17.4976 41.32 17.7832 41.9938 18.3545C42.6726 18.9258 43.0119 19.6533 43.0119 20.5371C43.0119 21.1035 42.841 21.665 42.4992 22.2217C42.1574 22.7734 41.5373 23.4937 40.6389 24.3823L38.427 26.6016V26.7261H43.173V28.3301H35.8342V27.019L39.3571 23.4155C40.0798 22.6831 40.5607 22.1338 40.8 21.7676C41.0393 21.3965 41.1589 21.0254 41.1589 20.6543C41.1589 20.1904 40.988 19.8071 40.6462 19.5044C40.3093 19.2017 39.8796 19.0503 39.3571 19.0503C38.8054 19.0503 38.3586 19.2163 38.0168 19.5483C37.675 19.8804 37.5041 20.3149 37.5041 20.8521V20.8813H35.7316V20.8521ZM46.3447 27.2095C46.0029 27.2095 45.7222 27.0996 45.5024 26.8799C45.2827 26.6602 45.1729 26.3843 45.1729 26.0522C45.1729 25.7153 45.2827 25.4395 45.5024 25.2246C45.7222 25.0049 46.0029 24.895 46.3447 24.895C46.6914 24.895 46.9722 25.0049 47.187 25.2246C47.4067 25.4395 47.5166 25.7153 47.5166 26.0522C47.5166 26.3843 47.4067 26.6602 47.187 26.8799C46.9722 27.0996 46.6914 27.2095 46.3447 27.2095ZM46.3447 21.7163C46.0029 21.7163 45.7222 21.6089 45.5024 21.394C45.2827 21.1743 45.1729 20.8984 45.1729 20.5664C45.1729 20.2295 45.2827 19.9536 45.5024 19.7388C45.7222 19.519 46.0029 19.4092 46.3447 19.4092C46.6914 19.4092 46.9722 19.519 47.187 19.7388C47.4067 19.9536 47.5166 20.2295 47.5166 20.5664C47.5166 20.8984 47.4067 21.1743 47.187 21.394C46.9722 21.6089 46.6914 21.7163 46.3447 21.7163ZM54.5188 28.3301V26.3599H49.3553V24.6753C50.2146 23.0933 51.6502 20.7886 53.6619 17.7612H56.3279V24.7632H57.7562V26.3599H56.3279V28.3301H54.5188ZM51.1058 24.6973V24.8071H54.5481V19.2993H54.4456C53.303 20.9888 52.1897 22.7881 51.1058 24.6973ZM63.3521 28.5938C62.1412 28.5938 61.1549 28.3081 60.3932 27.7368C59.6363 27.1606 59.2579 26.416 59.2579 25.5029C59.2579 24.834 59.4654 24.2554 59.8805 23.7671C60.2955 23.2739 60.8497 22.9541 61.5431 22.8076V22.6831C60.9815 22.5464 60.5299 22.2681 60.1881 21.8481C59.8512 21.4233 59.6827 20.9277 59.6827 20.3613C59.6827 19.5264 60.027 18.8403 60.7154 18.3032C61.4039 17.7661 62.2853 17.4976 63.3595 17.4976C64.4337 17.4976 65.3126 17.7661 65.9962 18.3032C66.6847 18.8403 67.0289 19.5264 67.0289 20.3613C67.0289 20.9277 66.8605 21.4209 66.5235 21.8408C66.1915 22.2607 65.7423 22.5415 65.1759 22.6831V22.8076C65.8644 22.9346 66.4161 23.2446 66.8312 23.7378C67.2511 24.2261 67.461 24.812 67.461 25.4956C67.461 26.4136 67.0802 27.1606 66.3185 27.7368C65.5616 28.3081 64.5729 28.5938 63.3521 28.5938ZM63.3595 27.1216C63.9942 27.1216 64.5094 26.958 64.9049 26.6309C65.3053 26.2988 65.5055 25.8691 65.5055 25.3418C65.5055 24.8145 65.3053 24.3872 64.9049 24.0601C64.5094 23.728 63.9942 23.562 63.3595 23.562C62.7198 23.562 62.1998 23.728 61.7994 24.0601C61.4039 24.3872 61.2062 24.8145 61.2062 25.3418C61.2062 25.8691 61.4039 26.2988 61.7994 26.6309C62.1998 26.958 62.7198 27.1216 63.3595 27.1216ZM62.0484 21.6797C62.3854 21.9678 62.8224 22.1118 63.3595 22.1118C63.8966 22.1118 64.3312 21.9678 64.6632 21.6797C65.0001 21.3867 65.1686 21.0083 65.1686 20.5444C65.1686 20.0708 65.0001 19.6875 64.6632 19.3945C64.3312 19.0967 63.8966 18.9478 63.3595 18.9478C62.8175 18.9478 62.378 19.0967 62.0411 19.3945C61.7091 19.6875 61.5431 20.0708 61.5431 20.5444C61.5431 21.0083 61.7115 21.3867 62.0484 21.6797Z" fill="#142437"/>
<rect opacity="0.9" x="122" y="799" width="131" height="5" rx="2.5" fill="#142437"/>
<g clip-path="url(#clip1_5002_62500)">
<path d="M205.667 133.607C210.731 133.608 214.837 137.714 214.837 142.778V186.25C218.065 186.609 220.975 188.5 222.619 191.399L225.746 196.936C226.938 199.042 229.151 200.33 231.54 200.33H232.227C233.43 200.33 234.366 199.383 234.366 198.153V179.351C234.366 174.756 236.16 170.345 239.354 167.09L248.845 157.45C249.739 156.543 251.203 156.543 252.097 157.451C252.969 158.338 252.97 159.76 252.1 160.648L247.283 165.56C248.776 168.047 249.303 171.061 248.713 173.936C248.14 176.735 246.557 179.218 244.287 180.903C242.698 182.081 240.831 182.82 238.896 183.051V187.804L238.901 198.153C238.901 201.882 235.888 204.947 232.228 204.947H231.541C227.535 204.947 223.818 202.771 221.814 199.244L218.688 193.709C217.851 192.238 216.439 191.229 214.837 190.905V210.82C214.837 215.885 210.732 219.99 205.667 219.99H169.327C164.263 219.99 160.156 215.885 160.156 210.82V142.778C160.156 137.714 164.262 133.608 169.326 133.607H205.667ZM172.808 142.978C170.757 142.978 169.094 144.64 169.094 146.691V163.731C169.094 165.782 170.757 167.445 172.808 167.445H202.188C204.24 167.445 205.902 165.783 205.902 163.731V146.691C205.902 144.64 204.24 142.978 202.188 142.978H172.808Z" fill="#142437"/>
<path d="M182.844 204.03C179.761 204.106 176.697 203.531 173.847 202.345C171.375 201.218 169.792 199.612 169.269 197.7C169.063 196.91 169.038 196.084 169.197 195.284C169.373 194.423 169.701 193.6 170.165 192.855C171.592 190.718 173.51 188.958 175.756 187.725C178.615 186.077 181.712 184.887 184.935 184.198C187.301 183.678 189.716 183.412 192.138 183.405C195.223 183.33 198.289 183.904 201.14 185.089C203.619 186.217 205.206 187.823 205.726 189.733C205.934 190.527 205.958 191.358 205.798 192.163C205.618 193.031 205.286 193.859 204.818 194.609C203.388 196.745 201.468 198.503 199.221 199.735C196.37 201.378 193.279 202.56 190.064 203.237C187.692 203.757 185.272 204.023 182.844 204.03Z" fill="#0873F6"/>
<path d="M242.901 132.443V128.202C242.901 127.089 243.103 125.874 243.207 124.763H243.004C242.394 125.876 241.884 126.786 241.275 128.001L238.527 132.35V132.451L242.901 132.443ZM245.033 140.634C243.856 140.636 242.901 139.683 242.901 138.507V135.69H236.28C235.105 135.69 234.152 134.737 234.152 133.562V132.862L241.865 120.97C242.257 120.365 242.929 120 243.65 120H245.25C246.425 120 247.377 120.953 247.377 122.128V132.343H248.251C249.173 132.343 249.92 133.09 249.92 134.012C249.92 134.934 249.173 135.681 248.251 135.681H247.377V138.506C247.377 139.68 246.427 140.631 245.254 140.634L245.033 140.634Z" fill="#142437"/>
<path d="M219.945 140.654V138.883C219.945 138.328 220.163 137.794 220.551 137.397L222.501 135.4C225.772 131.977 228.531 129.258 228.531 126.238C228.531 124.627 227.406 123.424 225.259 123.424C224.519 123.461 223.787 123.58 223.078 123.779C222.17 124.033 221.152 123.577 220.913 122.665L220.871 122.504C220.689 121.811 221.024 121.078 221.697 120.832C223.162 120.295 224.713 120.013 226.282 120C231.904 120 233.643 123.02 233.643 125.939C233.643 129.765 230.679 132.887 227.715 135.613L226.181 137.02V137.12H232.562C233.385 137.12 234.052 137.787 234.052 138.609V139.255C234.052 140.078 233.385 140.745 232.562 140.745H220.036C219.986 140.745 219.945 140.704 219.945 140.654Z" fill="#142437"/>
</g>
<path d="M55.5586 317V304.317H58.5996L62.1064 313.599H62.2646L65.7627 304.317H68.8037V317H66.4395V308.369H66.2637L63.0117 317H61.3506L58.0986 308.369H57.9229V317H55.5586ZM76.1074 317.202C73.1279 317.202 71.335 315.312 71.335 312.166V312.148C71.335 309.028 73.1543 307.112 76.1074 307.112C79.0605 307.112 80.8799 309.02 80.8799 312.148V312.166C80.8799 315.321 79.0869 317.202 76.1074 317.202ZM76.1074 315.189C77.4697 315.189 78.252 314.073 78.252 312.166V312.148C78.252 310.259 77.4609 309.125 76.1074 309.125C74.7451 309.125 73.9629 310.259 73.9629 312.148V312.166C73.9629 314.073 74.7363 315.189 76.1074 315.189ZM87.5596 317.211C84.4043 317.211 82.7168 315.11 82.7168 311.322V311.305C82.7168 306.321 84.3252 303.983 87.9111 303.852L89.1504 303.808C89.959 303.772 90.9521 303.641 91.6904 303.403V305.407C91.2949 305.618 90.3018 305.794 89.3086 305.829L88.1309 305.873C85.9775 305.943 85.0107 306.901 84.7031 309.195L84.6768 309.362H84.835C85.4502 308.193 86.5576 307.552 88.0781 307.552C90.6533 307.552 92.3145 309.362 92.3145 312.148V312.166C92.3145 315.242 90.5039 317.211 87.5596 317.211ZM87.5156 315.198C88.9043 315.198 89.7041 314.064 89.7041 312.236V312.219C89.7041 310.487 88.8955 309.477 87.5156 309.477C86.1357 309.477 85.3271 310.487 85.3271 312.219V312.236C85.3271 314.064 86.1182 315.198 87.5156 315.198ZM94.626 317V307.323H97.1484V313.379H97.333L101.024 307.323H103.547V317H101.024V310.874H100.831L97.1484 317H94.626ZM109.409 312.579C109.233 315.444 108.372 317.088 106.192 317.088C105.771 317.088 105.445 317.018 105.305 316.974V314.803C105.41 314.829 105.639 314.864 105.894 314.864C106.79 314.864 107.071 313.739 107.142 312.377L107.44 307.323H114.735V317H112.169V309.266H109.638L109.409 312.579ZM117.478 317V307.323H120.044V310.136H121.96C124.245 310.136 125.704 311.472 125.704 313.563V313.581C125.704 315.664 124.245 317 121.96 317H117.478ZM121.512 312.069H120.044V315.066H121.512C122.487 315.066 123.111 314.451 123.111 313.563V313.546C123.111 312.658 122.487 312.069 121.512 312.069ZM134.15 317V313.001H130.468V317H127.901V307.323H130.468V311.059H134.15V307.323H136.717V317H134.15ZM143.748 317.202C140.769 317.202 138.976 315.312 138.976 312.166V312.148C138.976 309.028 140.795 307.112 143.748 307.112C146.701 307.112 148.521 309.02 148.521 312.148V312.166C148.521 315.321 146.728 317.202 143.748 317.202ZM143.748 315.189C145.11 315.189 145.893 314.073 145.893 312.166V312.148C145.893 310.259 145.102 309.125 143.748 309.125C142.386 309.125 141.604 310.259 141.604 312.148V312.166C141.604 314.073 142.377 315.189 143.748 315.189ZM155.042 317.202C152.098 317.202 150.313 315.277 150.313 312.175V312.166C150.313 309.09 152.115 307.112 154.937 307.112C157.758 307.112 159.516 309.046 159.516 311.973V312.772H152.854C152.88 314.363 153.732 315.286 155.095 315.286C156.22 315.286 156.844 314.688 157.02 314.319L157.046 314.267H159.437L159.419 314.354C159.12 315.567 157.872 317.202 155.042 317.202ZM154.98 309.037C153.864 309.037 153.038 309.793 152.88 311.164H157.055C156.896 309.758 156.097 309.037 154.98 309.037ZM166.433 317V307.323H175.16V317H172.594V309.257H168.999V317H166.433ZM177.894 320.208V307.323H180.46V308.817H180.618C181.119 307.78 182.147 307.165 183.519 307.165C185.936 307.165 187.447 309.063 187.447 312.148V312.166C187.447 315.277 185.971 317.149 183.519 317.149C182.191 317.149 181.11 316.508 180.618 315.453H180.46V320.208H177.894ZM182.64 315.022C183.993 315.022 184.837 313.941 184.837 312.166V312.148C184.837 310.373 184.002 309.292 182.64 309.292C181.286 309.292 180.434 310.373 180.434 312.148V312.166C180.434 313.941 181.295 315.022 182.64 315.022ZM189.724 317V307.323H192.246V313.379H192.431L196.122 307.323H198.645V317H196.122V310.874H195.929L192.246 317H189.724ZM204.507 312.579C204.331 315.444 203.47 317.088 201.29 317.088C200.868 317.088 200.543 317.018 200.402 316.974V314.803C200.508 314.829 200.736 314.864 200.991 314.864C201.888 314.864 202.169 313.739 202.239 312.377L202.538 307.323H209.833V317H207.267V309.266H204.735L204.507 312.579ZM216.873 317.202C213.894 317.202 212.101 315.312 212.101 312.166V312.148C212.101 309.028 213.92 307.112 216.873 307.112C219.826 307.112 221.646 309.02 221.646 312.148V312.166C221.646 315.321 219.853 317.202 216.873 317.202ZM216.873 315.189C218.235 315.189 219.018 314.073 219.018 312.166V312.148C219.018 310.259 218.227 309.125 216.873 309.125C215.511 309.125 214.729 310.259 214.729 312.148V312.166C214.729 314.073 215.502 315.189 216.873 315.189ZM225.434 317H222.472L226.014 311.771L222.656 307.323H225.513L228.097 311.155H228.615V307.323H231.111V311.155H231.639L234.223 307.323H237.062L233.722 311.753L237.272 317H234.293L231.665 312.913H231.111V317H228.615V312.913H228.062L225.434 317ZM242.915 317.202C239.971 317.202 238.187 315.277 238.187 312.175V312.166C238.187 309.09 239.988 307.112 242.81 307.112C245.631 307.112 247.389 309.046 247.389 311.973V312.772H240.727C240.753 314.363 241.605 315.286 242.968 315.286C244.093 315.286 244.717 314.688 244.893 314.319L244.919 314.267H247.31L247.292 314.354C246.993 315.567 245.745 317.202 242.915 317.202ZM242.854 309.037C241.737 309.037 240.911 309.793 240.753 311.164H244.928C244.77 309.758 243.97 309.037 242.854 309.037ZM255.914 317V313.001H252.231V317H249.665V307.323H252.231V311.059H255.914V307.323H258.48V317H255.914ZM261.214 317V307.323H263.736V313.379H263.921L267.612 307.323H270.135V317H267.612V310.874H267.419L263.736 317H261.214ZM277.14 317.202C274.195 317.202 272.411 315.277 272.411 312.175V312.166C272.411 309.09 274.213 307.112 277.034 307.112C279.855 307.112 281.613 309.046 281.613 311.973V312.772H274.951C274.978 314.363 275.83 315.286 277.192 315.286C278.317 315.286 278.941 314.688 279.117 314.319L279.144 314.267H281.534L281.517 314.354C281.218 315.567 279.97 317.202 277.14 317.202ZM277.078 309.037C275.962 309.037 275.136 309.793 274.978 311.164H279.152C278.994 309.758 278.194 309.037 277.078 309.037ZM289.822 319.505H287.484V315.031H288.231C288.943 314.627 289.216 313.528 289.304 312.228L289.62 307.323H297.293V315.031H298.752V319.505H296.414V317H289.822V319.505ZM294.727 315.031V309.292H291.791L291.571 312.386C291.501 313.388 291.29 314.258 290.886 314.873V315.031H294.727ZM303.735 312.579C303.56 315.444 302.698 317.088 300.519 317.088C300.097 317.088 299.771 317.018 299.631 316.974V314.803C299.736 314.829 299.965 314.864 300.22 314.864C301.116 314.864 301.397 313.739 301.468 312.377L301.767 307.323H309.062V317H306.495V309.266H303.964L303.735 312.579ZM317.183 317V313.854H316.146L313.992 317H311.092L313.632 313.44C312.34 313.062 311.54 311.999 311.54 310.672V310.654C311.54 308.615 313.078 307.323 315.354 307.323H319.696V317H317.183ZM315.618 312.043H317.183V309.239H315.618C314.669 309.239 314.08 309.802 314.08 310.663V310.681C314.08 311.463 314.669 312.043 315.618 312.043ZM71.5986 333.948H71.1064V338H68.54V328.323H71.1064V332.12H71.5635L74.4463 328.323H77.3555L73.6816 332.753L77.5488 338H74.499L71.5986 333.948ZM83.2793 338.202C80.2998 338.202 78.5068 336.312 78.5068 333.166V333.148C78.5068 330.028 80.3262 328.112 83.2793 328.112C86.2324 328.112 88.0518 330.02 88.0518 333.148V333.166C88.0518 336.321 86.2588 338.202 83.2793 338.202ZM83.2793 336.189C84.6416 336.189 85.4238 335.073 85.4238 333.166V333.148C85.4238 331.259 84.6328 330.125 83.2793 330.125C81.917 330.125 81.1348 331.259 81.1348 333.148V333.166C81.1348 335.073 81.9082 336.189 83.2793 336.189ZM90.3193 341.208V328.323H92.8857V329.817H93.0439C93.5449 328.78 94.5732 328.165 95.9443 328.165C98.3613 328.165 99.873 330.063 99.873 333.148V333.166C99.873 336.277 98.3965 338.149 95.9443 338.149C94.6172 338.149 93.5361 337.508 93.0439 336.453H92.8857V341.208H90.3193ZM95.0654 336.022C96.4189 336.022 97.2627 334.941 97.2627 333.166V333.148C97.2627 331.373 96.4277 330.292 95.0654 330.292C93.7119 330.292 92.8594 331.373 92.8594 333.148V333.166C92.8594 334.941 93.7207 336.022 95.0654 336.022ZM102.149 338V328.323H110.877V338H108.311V330.257H104.716V338H102.149ZM117.908 338.202C114.929 338.202 113.136 336.312 113.136 333.166V333.148C113.136 330.028 114.955 328.112 117.908 328.112C120.861 328.112 122.681 330.02 122.681 333.148V333.166C122.681 336.321 120.888 338.202 117.908 338.202ZM117.908 336.189C119.271 336.189 120.053 335.073 120.053 333.166V333.148C120.053 331.259 119.262 330.125 117.908 330.125C116.546 330.125 115.764 331.259 115.764 333.148V333.166C115.764 335.073 116.537 336.189 117.908 336.189ZM124.948 341.208V328.323H127.515V329.817H127.673C128.174 328.78 129.202 328.165 130.573 328.165C132.99 328.165 134.502 330.063 134.502 333.148V333.166C134.502 336.277 133.025 338.149 130.573 338.149C129.246 338.149 128.165 337.508 127.673 336.453H127.515V341.208H124.948ZM129.694 336.022C131.048 336.022 131.892 334.941 131.892 333.166V333.148C131.892 331.373 131.057 330.292 129.694 330.292C128.341 330.292 127.488 331.373 127.488 333.148V333.166C127.488 334.941 128.35 336.022 129.694 336.022ZM139.415 338.149C137.569 338.149 136.26 337.007 136.26 335.249V335.231C136.26 333.491 137.604 332.472 140.013 332.331L142.351 332.19V331.391C142.351 330.556 141.779 330.081 140.725 330.081C139.802 330.081 139.213 330.406 139.011 330.978L138.993 331.013H136.62L136.629 330.934C136.831 329.237 138.431 328.112 140.865 328.112C143.432 328.112 144.882 329.325 144.882 331.391V338H142.351V336.717H142.192C141.7 337.613 140.681 338.149 139.415 338.149ZM138.765 335.091C138.765 335.829 139.389 336.277 140.276 336.277C141.463 336.277 142.351 335.495 142.351 334.476V333.764L140.399 333.887C139.301 333.957 138.765 334.37 138.765 335.073V335.091ZM155.174 328.323V330.266H152.282V338H149.716V330.266H146.815V328.323H155.174ZM157.169 338V328.323H159.691V334.379H159.876L163.567 328.323H166.09V338H163.567V331.874H163.374L159.691 338H157.169ZM168.841 338V328.323H173.684C175.696 328.323 176.883 329.29 176.883 330.767V330.784C176.883 331.821 176.162 332.7 175.143 332.867V333.025C176.443 333.148 177.313 334.045 177.313 335.24V335.258C177.313 336.884 175.969 338 173.771 338H168.841ZM171.363 332.305H172.857C173.851 332.305 174.36 331.874 174.36 331.136V331.118C174.36 330.424 173.903 329.967 172.998 329.967H171.363V332.305ZM171.363 336.348H173.183C174.176 336.348 174.677 335.873 174.677 335.117V335.1C174.677 334.309 174.132 333.878 173.033 333.878H171.363V336.348ZM185.918 338V334.001H182.235V338H179.669V328.323H182.235V332.059H185.918V328.323H188.484V338H185.918ZM191.218 338V328.323H193.784V331.136H195.7C197.985 331.136 199.444 332.472 199.444 334.563V334.581C199.444 336.664 197.985 338 195.7 338H191.218ZM200.974 338V328.323H203.54V338H200.974ZM195.252 333.069H193.784V336.066H195.252C196.228 336.066 196.852 335.451 196.852 334.563V334.546C196.852 333.658 196.228 333.069 195.252 333.069ZM205.579 338L208.611 333.21L205.553 328.323H208.497L210.211 331.531H210.369L212.083 328.323H214.878L211.828 333.104L214.896 338H212.057L210.246 334.801H210.088L208.286 338H205.579ZM224.616 333.948H224.124V338H221.558V328.323H224.124V332.12H224.581L227.464 328.323H230.373L226.699 332.753L230.566 338H227.517L224.616 333.948ZM235.409 333.579C235.233 336.444 234.372 338.088 232.192 338.088C231.771 338.088 231.445 338.018 231.305 337.974V335.803C231.41 335.829 231.639 335.864 231.894 335.864C232.79 335.864 233.071 334.739 233.142 333.377L233.44 328.323H240.735V338H238.169V330.266H235.638L235.409 333.579ZM243.478 338V328.323H246V334.379H246.185L249.876 328.323H252.398V338H249.876V331.874H249.683L246 338H243.478ZM259.403 338.202C256.459 338.202 254.675 336.277 254.675 333.175V333.166C254.675 330.09 256.477 328.112 259.298 328.112C262.119 328.112 263.877 330.046 263.877 332.973V333.772H257.215C257.241 335.363 258.094 336.286 259.456 336.286C260.581 336.286 261.205 335.688 261.381 335.319L261.407 335.267H263.798L263.78 335.354C263.481 336.567 262.233 338.202 259.403 338.202ZM259.342 330.037C258.226 330.037 257.399 330.793 257.241 332.164H261.416C261.258 330.758 260.458 330.037 259.342 330.037ZM272.402 338V334.001H268.72V338H266.153V328.323H268.72V332.059H272.402V328.323H274.969V338H272.402ZM285.305 328.323V330.266H282.413V338H279.847V330.266H276.946V328.323H285.305ZM291.334 338.202C288.354 338.202 286.562 336.312 286.562 333.166V333.148C286.562 330.028 288.381 328.112 291.334 328.112C294.287 328.112 296.106 330.02 296.106 333.148V333.166C296.106 336.321 294.313 338.202 291.334 338.202ZM291.334 336.189C292.696 336.189 293.479 335.073 293.479 333.166V333.148C293.479 331.259 292.688 330.125 291.334 330.125C289.972 330.125 289.189 331.259 289.189 333.148V333.166C289.189 335.073 289.963 336.189 291.334 336.189ZM298.374 338V328.323H303.217C305.229 328.323 306.416 329.29 306.416 330.767V330.784C306.416 331.821 305.695 332.7 304.676 332.867V333.025C305.977 333.148 306.847 334.045 306.847 335.24V335.258C306.847 336.884 305.502 338 303.305 338H298.374ZM300.896 332.305H302.391C303.384 332.305 303.894 331.874 303.894 331.136V331.118C303.894 330.424 303.437 329.967 302.531 329.967H300.896V332.305ZM300.896 336.348H302.716C303.709 336.348 304.21 335.873 304.21 335.117V335.1C304.21 334.309 303.665 333.878 302.566 333.878H300.896V336.348Z" fill="#142437"/>
<g clip-path="url(#clip2_5002_62500)">
<path d="M349 366H23C17.4772 366 13 370.477 13 376V420C13 425.523 17.4772 430 23 430H349C354.523 430 359 425.523 359 420V376C359 370.477 354.523 366 349 366Z" fill="#404040"/>
<path d="M362 217H1V543H362V217Z" fill="#56575C" stroke="#494B50"/>
<path d="M326.743 453.031C327.504 448.841 330.319 446.287 328.753 441.845C327.577 438.509 325.262 436.76 322.422 434.535C318.551 431.502 316.1 428.168 313.046 424.518C311.726 422.94 309.47 421.587 308.392 419.859C306.558 416.92 308.1 418.639 310.086 417.071C314.306 413.737 307.022 409.516 306.968 405.564C310.046 406.783 310.168 412.877 313.268 413.512C317.95 414.471 315.084 408.363 315.268 406.937C315.668 403.876 320.024 401.669 318.08 397.85C317.28 396.279 315.971 396.576 314.947 395.482C313.787 394.242 314.422 392.047 312.575 391.543C310.627 391.011 305.712 393.843 303.775 394.251C301.115 394.814 297.969 394.837 295.475 395.81C293.54 396.566 292.075 397.652 291.743 399.372C291.305 401.618 294.09 403.006 293.937 404.832C293.718 407.44 289.842 407.249 288.644 408.76C287.227 410.548 288.209 413.218 289.26 415.026C291.902 419.571 298.031 422.006 301.346 426.302C305.762 432.022 310.929 437.183 315.739 442.67C319.102 446.505 324.861 447.899 326.743 453.031Z" fill="#56575C" stroke="#494B50"/>
<path d="M354.474 357.82C356.73 357.306 358.728 356.12 360.809 355.572C361.178 355.475 361.54 355.396 361.895 355.334V425.179C359.702 427.893 356.975 430.92 354.938 431.304C351.697 431.914 348.605 425.944 348.1 423.412C347.567 420.744 348.853 419.659 350.216 417.741C350.763 416.97 351.35 416.828 351.763 415.93C352.053 415.299 351.486 414.051 352.063 413.076C353.07 411.382 355.232 411.059 355.873 408.898C356.713 406.065 356.364 405.445 358.501 402.873C359.837 401.265 361.883 399.24 359.884 397.473C358.6 396.34 355.397 397.14 354.059 395.754C352.231 393.861 354.351 392.343 354.315 390.145C354.301 389.226 352.782 389.033 353.351 387.91C353.902 386.823 356.307 386.892 357.11 385.688C359.93 381.463 356.935 374.463 353.068 372.004C350.624 370.449 346.557 371.541 344.605 369.762C342.689 368.015 344.93 363.21 346.325 361.298C348.268 358.643 351.322 358.538 354.474 357.82Z" fill="#56575C" stroke="#494B50"/>
<path d="M330.149 357.752C325.244 352.061 323.274 360.093 322.397 362.502C320.468 367.802 318.497 362.624 315.584 362.21C312.453 361.763 310.323 365.945 307.228 366.41C304.715 366.784 304.604 365.141 302.581 365.001C301.245 364.909 295.336 367.269 294.19 368.032C292.468 369.178 292.438 370.081 292.663 372.286C292.978 375.372 292.685 374.686 290.743 377.28C288.355 377.023 288.127 374.347 285.478 375.136C282.568 376.003 280.91 380.829 280.902 383.192C280.884 388.184 283.453 401.292 291.749 395.192C293.449 393.942 294.424 392.311 296.509 391.44C297.751 390.921 300.258 391.078 301.209 390.184C302.316 389.14 301.545 387.83 302.441 386.811C303.619 385.474 307.162 384.74 308.798 384.017C313.567 381.908 316.48 378.698 321.408 376.752C322.898 376.058 324.426 375.449 325.984 374.929C327.203 374.603 328.916 374.899 329.999 374.495C336.085 372.224 333.027 362.776 330.149 357.752Z" fill="#56575C" stroke="#494B50"/>
<path d="M332.291 334.586C346.232 335.986 357.61 329.115 361.891 326.068V340.74C354.897 343.746 332.522 348.572 327.234 349.456C319.091 351.083 311.137 353.541 303.496 356.792C295.583 360.162 294.704 356.592 293.165 359.37C291.626 362.148 283.714 363.732 282.175 366.706C280.636 369.68 275.581 370.473 271.185 377.413C266.789 384.353 267.885 392.68 271.185 402.593C274.485 412.506 294.044 432.532 302.179 439.074C310.314 445.616 312.51 451.566 318.224 455.134C323.202 458.243 354.024 485.417 361.892 492.375V505.875C355.992 500.065 337.23 481.7 327.676 473.575C316.246 463.86 283.496 441.455 265.476 414.292C247.456 387.129 256.021 364.325 271.408 346.085C286.795 327.845 314.488 332.801 332.291 334.586ZM266.362 362.568C268.176 364.477 269.688 364.068 272.409 362.568C275.13 361.068 274.223 360.932 276.642 359.841C279.061 358.75 279.061 359.841 282.99 357.932C286.919 356.023 289.69 356.877 291.724 356.18C293.684 355.51 292.377 352.98 298.124 351.072C303.871 349.164 304.156 348.251 310.506 346.478C316.856 344.705 322.906 343.069 325.925 343.342C328.944 343.615 336.181 340.098 329.251 340.479C326.259 341.094 323.173 341.094 320.181 340.479C316.1 339.388 308.087 336.524 301.134 337.206C294.181 337.888 284.808 341.297 278.458 346.752C272.108 352.207 264.544 360.658 266.362 362.568Z" fill="#56575C" stroke="#494B50"/>
<path d="M245.243 413.01C246.726 415.737 247.613 418.71 248.998 421.467C249.478 422.423 250.129 423.285 250.593 424.231C251.118 425.302 250.465 425.605 249.558 426.599C248.823 427.517 248.012 428.372 247.133 429.153C246.041 429.986 245.581 429.112 244.619 428.329C243.36 427.304 242.708 427.693 241.357 428.585C240.683 429.03 239.241 430.541 238.427 430.698C237.314 430.913 235.476 429.442 234.678 428.872C233.88 428.302 231.919 426.03 230.763 426.278C229.233 426.607 228.932 429.278 227.69 429.831C226.711 430.265 225.322 428.286 224.654 427.592C223.767 426.858 223.165 425.837 222.954 424.705C222.924 423.805 223.598 423.446 224.331 422.75C225.823 421.335 227.282 419.872 228.675 418.38C230.115 416.837 231.639 415.349 233.014 413.76C233.933 412.698 234.081 412.422 235.014 413.742C235.878 414.963 236.269 416.537 237.126 417.701C237.635 418.393 237.713 418.347 238.579 417.774C239.574 417.116 244.084 411.029 245.243 413.01Z" fill="#56575C" stroke="#494B50"/>
<path d="M254.616 425.984C255.739 427.59 257.953 428.842 259.416 430.217C260.463 431.425 261.636 432.517 262.916 433.474C262.416 434.519 260.782 435.527 259.835 436.289C258.749 437.163 257.55 437.898 256.455 438.766C255.482 439.537 253.13 442.312 251.827 441.866C251.046 441.598 250.12 440.325 249.557 439.777C248.757 439.001 247.991 438.206 247.267 437.372C246.953 437.009 245.978 436.297 245.961 435.809C245.934 435.027 248.054 433.58 248.73 432.883C250.842 430.716 252.809 428.412 254.616 425.984Z" fill="#56575C" stroke="#494B50"/>
<path d="M218.399 423.484C217.789 422.062 218.583 419.941 216.583 419.184C215.208 418.664 213.517 419.684 212.647 420.602C211.36 421.987 210 423.301 208.573 424.541C206.856 426.015 207.999 427.968 207.188 429.85C206.507 431.432 204.644 432.191 204.875 433.982C205.086 435.62 206.144 436.828 206.999 438.229C207.772 439.495 207.729 441.342 208.833 442.392C210.656 444.128 215.173 443.44 217.495 442.938C218.606 442.76 219.643 442.268 220.484 441.52C221.324 440.771 221.932 439.798 222.237 438.715C222.837 437.062 223.228 435.333 223.806 433.665C223.94 433.279 224.406 432.639 224.239 432.226C224.039 431.737 222.924 431.243 222.53 430.77C220.949 428.874 218.732 425.961 218.399 423.484Z" fill="#56575C" stroke="#494B50"/>
<path d="M82.4215 373.844C82.8625 375.881 89.7505 374.77 91.4365 374.544C94.4093 374.109 97.4368 374.228 100.367 374.894C104.767 376.067 109.132 381.246 109.173 385.482C109.196 387.864 107.035 385.343 105.457 385.854C103.689 386.428 103.567 390.462 102.587 391.916C101.572 393.416 99.4135 394.944 97.2645 394.577C96.3575 394.423 95.6445 393.733 94.7025 393.601C93.9702 393.489 93.2214 393.573 92.5322 393.845C91.8431 394.117 91.2383 394.566 90.7795 395.148C89.6565 396.281 87.9925 398.308 86.2375 398.648C83.3155 399.212 80.7785 397.282 78.2205 396.587C74.5205 395.582 72.5975 402.269 71.3045 404.539C69.5983 407.288 68.1696 410.2 67.0395 413.232C66.8695 413.75 65.5705 418.595 64.0885 416.942C63.4735 416.255 65.0775 414.167 65.3645 413.621C66.2211 412.105 66.989 410.541 67.6645 408.936C68.9905 405.484 70.4135 402.048 71.7645 398.587C74.7275 390.977 78.6355 383.732 81.4645 376.081C81.7353 375.315 82.0549 374.568 82.4215 373.844Z" fill="#56575C" stroke="#494B50"/>
<path d="M76.3611 398.518C77.5081 398.787 81.9741 398.872 82.6611 399.775C83.2821 400.589 81.7161 403.497 81.4541 404.407C80.6421 407.223 80.7871 411.707 78.6021 413.94C77.3461 415.22 76.0111 416.763 74.6891 417.998C73.5571 419.056 73.6511 418.528 72.3191 418.566C71.2371 418.597 71.0811 418.792 70.3331 419.827C69.7331 420.658 68.0151 423.627 66.5611 422.077C65.3931 420.83 69.1221 415.167 69.6731 413.815C70.9621 410.652 72.2201 407.46 73.7171 404.376C74.5971 402.569 75.9801 400.68 76.3611 398.518Z" fill="#56575C" stroke="#494B50"/>
<path d="M70.7662 393.752C68.8602 396.569 67.7872 400.319 66.7252 403.426C65.7132 406.387 64.7252 409.351 63.5392 412.263C63.0932 413.363 62.0192 416.295 60.8072 416.731C60.0992 414.933 59.5696 413.07 59.2262 411.168C58.6889 408.683 57.9951 406.234 57.1492 403.836C56.5562 402.329 54.7492 399.483 54.9262 397.888C55.1192 396.129 61.8342 394.961 63.6972 394.611C66.0319 394.168 68.3934 393.881 70.7662 393.752Z" fill="#56575C" stroke="#494B50"/>
<path d="M335.592 423.863C336.471 424.791 337.762 425.768 338.292 426.934C338.883 428.243 335.75 429.297 334.741 429.77C333.362 430.416 332.421 431.27 331.146 430.07C330.44 429.444 329.777 428.773 329.159 428.061C328.892 427.729 328.768 427.85 328.893 427.407C329.051 426.853 330.443 426.019 330.945 425.661C331.724 424.938 332.612 424.342 333.576 423.894C334.118 423.764 335.321 424.039 335.592 423.863Z" fill="#56575C" stroke="#494B50"/>
<path d="M245.532 367.722C245.738 366.832 246.223 365.59 247.332 365.922C248.146 366.188 248.925 366.554 249.649 367.01C250.093 367.245 250.483 367.571 250.793 367.966C251.103 368.361 251.327 368.817 251.449 369.304C251.676 370.504 250.38 371.704 250.175 372.925C250.061 374.04 249.662 375.108 249.018 376.025C248.387 376.717 247.672 377.326 246.889 377.84C246.396 378.24 245.474 379.053 244.707 378.654C244.12 378.354 244.447 377.626 244.507 377.12C244.645 376.452 244.559 375.757 244.264 375.141C243.764 374.176 243.313 372.353 244.547 371.599C245.147 371.235 245.647 371.699 246.247 371.465C246.571 371.264 246.835 370.98 247.012 370.642C247.189 370.304 247.273 369.925 247.254 369.544C247.301 369.342 247.275 369.13 247.178 368.947C247.082 368.763 246.923 368.62 246.73 368.544C246.328 368.311 245.471 368.345 245.532 367.722Z" fill="#56575C" stroke="#494B50"/>
<path d="M155.777 457.881C155.777 457.881 173.916 444.562 184.097 437.812C194.278 431.062 219.049 411.686 227.737 402.977C232.442 398.118 237.702 393.829 243.408 390.199L251.924 378.299" fill="#56575C"/>
<path d="M155.777 457.881C155.777 457.881 173.916 444.562 184.097 437.812C194.278 431.062 219.049 411.686 227.737 402.977C232.442 398.118 237.702 393.829 243.408 390.199L251.924 378.299" stroke="#494B50" stroke-width="3" stroke-linecap="round" stroke-linejoin="round"/>
<path d="M139.641 438.509L215.188 386.209L227.738 402.973C227.738 402.973 231.056 409.912 225.132 414.492C219.208 419.072 216.951 423.907 225.978 431.792L219.49 451.386L211.309 469.604L206.514 483.956L205.354 504.594" fill="#56575C"/>
<path d="M139.641 438.509L215.188 386.209L227.738 402.973C227.738 402.973 231.056 409.912 225.132 414.492C219.208 419.072 216.951 423.907 225.978 431.792L219.49 451.386L211.309 469.604L206.514 483.956L205.354 504.594" stroke="#494B50" stroke-width="3" stroke-linecap="round" stroke-linejoin="round"/>
<path d="M245.439 409.406L252.773 425.182L243.406 435.869" fill="#56575C"/>
<path d="M245.439 409.406L252.773 425.182L243.406 435.869" stroke="#494B50" stroke-width="3" stroke-linecap="round" stroke-linejoin="round"/>
<path d="M363.727 320.297C363.727 320.297 352.126 333.02 327.865 330.22C303.604 327.42 280.191 321.059 260.165 354.649C240.139 388.239 257.906 420.304 286.397 446.005C314.888 471.706 346.555 497.92 363.727 518.02" fill="#56575C"/>
<path d="M363.727 320.297C363.727 320.297 352.126 333.02 327.865 330.22C303.604 327.42 280.191 321.059 260.165 354.649C240.139 388.239 257.906 420.304 286.397 446.005C314.888 471.706 346.555 497.92 363.727 518.02" stroke="#494B50" stroke-width="5" stroke-linecap="round" stroke-linejoin="round"/>
<path d="M327.867 330.223C327.867 330.223 332.103 357.199 333.509 368.899C334.915 380.599 354.455 404.779 363.729 413.431" fill="#56575C"/>
<path d="M327.867 330.223C327.867 330.223 332.103 357.199 333.509 368.899C334.915 380.599 354.455 404.779 363.729 413.431" stroke="#494B50" stroke-width="5" stroke-linecap="round" stroke-linejoin="round"/>
<path d="M363.728 344.219C363.728 344.219 352.889 349.773 341.976 350.477C331.063 351.181 309.535 356.687 291.476 366.866C273.417 377.045 268.626 390.532 278.782 406.31C288.938 422.088 326.739 456.693 326.739 456.693" fill="#56575C"/>
<path d="M363.728 344.219C363.728 344.219 352.889 349.773 341.976 350.477C331.063 351.181 309.535 356.687 291.476 366.866C273.417 377.045 268.626 390.532 278.782 406.31C288.938 422.088 326.739 456.693 326.739 456.693" stroke="#494B50" stroke-width="5" stroke-linecap="round" stroke-linejoin="round"/>
<path d="M302.947 262.646V280.232H257.015C257.015 280.232 246.191 275.892 244.988 280.232C243.785 284.572 242.102 294.769 233.443 295.203C233.443 295.203 229.595 299.543 236.811 305.403C244.027 311.263 254.611 316.427 254.129 330.225C253.647 344.023 240.659 370.059 239.938 375.266C239.217 380.473 246.095 404.135 261.167 416.177" fill="#56575C"/>
<path d="M302.947 262.646V280.232H257.015C257.015 280.232 246.191 275.892 244.988 280.232C243.785 284.572 242.102 294.769 233.443 295.203C233.443 295.203 229.595 299.543 236.811 305.403C244.027 311.263 254.611 316.427 254.129 330.225C253.647 344.023 240.659 370.059 239.938 375.266C239.217 380.473 246.095 404.135 261.167 416.177" stroke="#494B50" stroke-width="5" stroke-linecap="round" stroke-linejoin="round"/>
<path d="M137.711 434.762C137.711 434.762 129.022 384.47 119.369 375.979C109.716 367.488 83.1694 369.665 83.1694 369.665L74.4794 348.111L-1.30859 366.352" fill="#56575C"/>
<path d="M137.711 434.762C137.711 434.762 129.022 384.47 119.369 375.979C109.716 367.488 83.1694 369.665 83.1694 369.665L74.4794 348.111L-1.30859 366.352" stroke="#494B50" stroke-width="5" stroke-linecap="round" stroke-linejoin="round"/>
<path d="M252.777 373.028L285.452 370.746" stroke="#494B50" stroke-width="5" stroke-linecap="round" stroke-linejoin="round"/>
<path d="M119.629 413.701C119.887 415.134 120.655 416.424 121.791 417.335C122.926 418.245 124.353 418.715 125.807 418.656C126.401 418.657 126.992 418.58 127.566 418.428" fill="#56575C"/>
<path d="M119.629 413.701C119.887 415.134 120.655 416.424 121.791 417.335C122.926 418.245 124.353 418.715 125.807 418.656C126.401 418.657 126.992 418.58 127.566 418.428" stroke="#494B50" stroke-linecap="round" stroke-linejoin="round"/>
<path d="M228.66 469.612C228.66 469.612 239.514 480.402 251.018 489.883C262.522 499.364 263.405 518.021 263.405 518.021C263.405 518.021 257.215 507.683 251.605 504.603C245.995 501.523 234.142 498.214 227.094 491.344C220.046 484.474 212.148 478.307 212.148 478.307C212.148 478.307 198.326 474.946 194.941 466.224C191.556 457.502 189.582 453.924 194.095 445.663C198.608 437.402 198.289 432.524 196.333 428.982" fill="#56575C"/>
<path d="M228.66 469.612C228.66 469.612 239.514 480.402 251.018 489.883C262.522 499.364 263.405 518.021 263.405 518.021C263.405 518.021 257.215 507.683 251.605 504.603C245.995 501.523 234.142 498.214 227.094 491.344C220.046 484.474 212.148 478.307 212.148 478.307C212.148 478.307 198.326 474.946 194.941 466.224C191.556 457.502 189.582 453.924 194.095 445.663C198.608 437.402 198.289 432.524 196.333 428.982" stroke="#494B50" stroke-linecap="round" stroke-linejoin="round"/>
<path d="M131.9 441.464L127.848 438.541L131.9 431.741L125.806 413.041L92.5131 416.579L88.5871 416.154L58.1211 427.253" fill="#56575C"/>
<path d="M131.9 441.464L127.848 438.541L131.9 431.741L125.806 413.041L92.5131 416.579L88.5871 416.154L58.1211 427.253" stroke="#494B50" stroke-linecap="round" stroke-linejoin="round"/>
<path d="M55.7664 431.46H41.0044L22.0044 422.819L-1.30859 409.928" fill="#56575C"/>
<path d="M55.7664 431.46H41.0044L22.0044 422.819L-1.30859 409.928" stroke="#494B50" stroke-linecap="round" stroke-linejoin="round"/>
<path d="M8.18375 424.039L29.2217 434.008L24.2307 443.008L2.84375 431.459L8.18375 424.039Z" fill="#56575C" stroke="#494B50" stroke-linecap="round" stroke-linejoin="round"/>
<path d="M22.0034 422.818L18.6094 428.981" stroke="#494B50" stroke-linecap="round" stroke-linejoin="round"/>
<path d="M21.293 478.305L39.121 466.222L45.089 459.772L47.759 451.392L50.115 441.464L60.478 422.643L83.164 369.67" fill="#56575C"/>
<path d="M21.293 478.305L39.121 466.222L45.089 459.772L47.759 451.392L50.115 441.464L60.478 422.643L83.164 369.67" stroke="#494B50" stroke-linecap="round" stroke-linejoin="round"/>
<path d="M80.3517 419.159L79.7947 413.043L84.5057 399.019L74.7687 396.611L61.8438 425.9" fill="#56575C"/>
<path d="M80.3517 419.159L79.7947 413.043L84.5057 399.019L74.7687 396.611L61.8438 425.9" stroke="#494B50" stroke-linecap="round" stroke-linejoin="round"/>
<path d="M77.0904 354.6L-1.30859 384.144" stroke="#494B50" stroke-linecap="round" stroke-linejoin="round"/>
<path d="M-1.30859 391.438L11.4824 384.144L25.9304 377.628L80.9564 364.189" fill="#56575C"/>
<path d="M-1.30859 391.438L11.4824 384.144L25.9304 377.628L80.9564 364.189" stroke="#494B50" stroke-linecap="round" stroke-linejoin="round"/>
<path d="M78.2671 381.104L29.8281 392.977" stroke="#494B50" stroke-linecap="round" stroke-linejoin="round"/>
<path d="M81.8706 372.684L27.2266 385.028" stroke="#494B50" stroke-linecap="round" stroke-linejoin="round"/>
<path d="M58.1211 361.748L67.0741 392.977" stroke="#494B50" stroke-linecap="round" stroke-linejoin="round"/>
<path d="M38.0195 356.887L58.1205 427.255" stroke="#494B50" stroke-linecap="round" stroke-linejoin="round"/>
<path d="M52.2266 396.354L60.4766 422.641" stroke="#494B50" stroke-linecap="round" stroke-linejoin="round"/>
<path d="M357.465 439.753L349.902 427.053L334.902 397.806L332.165 393.23L335.357 375.117L325.875 378.292" fill="#56575C"/>
<path d="M357.465 439.753L349.902 427.053L334.902 397.806L332.165 393.23L335.357 375.117L325.875 378.292" stroke="#494B50" stroke-miterlimit="10"/>
<path d="M359.723 409.408L349.904 427.056L344.816 430.239L322.822 409.408L318.633 397.208L313.004 387.857H310.86L306.228 379.103V371.824L301.586 361.775" fill="#56575C"/>
<path d="M359.723 409.408L349.904 427.056L344.816 430.239L322.822 409.408L318.633 397.208L313.004 387.857H310.86L306.228 379.103V371.824L301.586 361.775" stroke="#494B50" stroke-miterlimit="10"/>
<path d="M363.726 398.605L344.812 400.456" stroke="#494B50" stroke-miterlimit="10"/>
<path d="M342.398 397.61L349.015 391.84H363.726" fill="#56575C"/>
<path d="M342.398 397.61L349.015 391.84H363.726" stroke="#494B50" stroke-miterlimit="10"/>
<path d="M338.363 447.882L307.663 418.5L299.122 404.175L292.814 394.725L279.629 375.992" fill="#56575C"/>
<path d="M338.363 447.882L307.663 418.5L299.122 404.175L292.814 394.725L279.629 375.992" stroke="#494B50" stroke-miterlimit="10"/>
<path d="M345.797 391.84H329.768L318.633 397.212" fill="#56575C"/>
<path d="M345.797 391.84H329.768L318.633 397.212" stroke="#494B50" stroke-miterlimit="10"/>
<path d="M307.668 418.499L322.821 409.406" stroke="#494B50" stroke-miterlimit="10"/>
<path d="M363.727 427.056L353.5 433.096L359.722 422.64L353.5 420.59" fill="#56575C"/>
<path d="M363.727 427.056L353.5 433.096L359.722 422.64L353.5 420.59" stroke="#494B50" stroke-miterlimit="10"/>
<path d="M333.118 419.16L326.74 426.843L318.633 419.16L322.822 416.176L330.229 422.64" fill="#56575C"/>
<path d="M333.118 419.16L326.74 426.843L318.633 419.16L322.822 416.176L330.229 422.64" stroke="#494B50" stroke-miterlimit="10"/>
<path d="M299.125 404.176C299.125 404.176 293.653 404.692 294.535 409.408C294.535 409.408 285.143 411.066 286.42 416.176L288.875 419.16L302.942 411.937" fill="#56575C"/>
<path d="M299.125 404.176C299.125 404.176 293.653 404.692 294.535 409.408C294.535 409.408 285.143 411.066 286.42 416.176L288.875 419.16L302.942 411.937" stroke="#494B50" stroke-miterlimit="10"/>
<path d="M297.615 414.673L294.539 409.406L286.305 398.606L283.668 396.006L276.641 380" fill="#56575C"/>
<path d="M297.615 414.673L294.539 409.406L286.305 398.606L283.668 396.006L276.641 380" stroke="#494B50" stroke-miterlimit="10"/>
<path d="M273.57 391.84H281.836" stroke="#494B50" stroke-miterlimit="10"/>
<path d="M288.23 411.938L291.654 417.734" stroke="#494B50" stroke-miterlimit="10"/>
<path d="M286.305 398.6L297.616 392.83L310.861 387.856H313.006L337.752 380H347.946" fill="#56575C"/>
<path d="M286.305 398.6L297.616 392.83L310.861 387.856H313.006L337.752 380H347.946" stroke="#494B50" stroke-miterlimit="10"/>
<path d="M297.615 392.835L294.625 383.882V378.297L289.012 371.828V368.334L296.523 368.96H309.772L315.245 374.332L329.768 391.84" fill="#56575C"/>
<path d="M297.615 392.835L294.625 383.882V378.297L289.012 371.828V368.334L296.523 368.96H309.772L315.245 374.332L329.768 391.84" stroke="#494B50" stroke-miterlimit="10"/>
<path d="M287.129 386.639L296.121 382.489L306.229 379.107L315.246 374.332L318.634 371.832L324.094 369.959" fill="#56575C"/>
<path d="M287.129 386.639L296.121 382.489L306.229 379.107L315.246 374.332L318.634 371.832L324.094 369.959" stroke="#494B50" stroke-miterlimit="10"/>
<path d="M327.649 383.21L325.874 378.298L322.82 366.772V361.002H325.875L325.236 357.222L329.769 352.381" fill="#56575C"/>
<path d="M327.649 383.21L325.874 378.298L322.82 366.772V361.002H325.875L325.236 357.222L329.769 352.381" stroke="#494B50" stroke-miterlimit="10"/>
<path d="M305.363 369.955L296.744 371.828L294.625 378.297" fill="#56575C"/>
<path d="M305.363 369.955L296.744 371.828L294.625 378.297" stroke="#494B50" stroke-miterlimit="10"/>
<path d="M309.77 368.963L322.82 366.775H333.24L356.072 364.785" fill="#56575C"/>
<path d="M309.77 368.963L322.82 366.775H333.24L356.072 364.785" stroke="#494B50" stroke-miterlimit="10"/>
<path d="M349.017 391.839L345.797 361.775H347.946V349.654" fill="#56575C"/>
<path d="M349.017 391.839L345.797 361.775H347.946V349.654" stroke="#494B50" stroke-miterlimit="10"/>
<path d="M363.726 370.747H358.612V361.777H356.072V353.838L331.73 355.838" fill="#56575C"/>
<path d="M363.726 370.747H358.612V361.777H356.072V353.838L331.73 355.838" stroke="#494B50" stroke-miterlimit="10"/>
<path d="M353.5 433.095L349.016 434.763L344.816 430.238" fill="#56575C"/>
<path d="M353.5 433.095L349.016 434.763L344.816 430.238" stroke="#494B50" stroke-miterlimit="10"/>
<path d="M340.276 408.827C341.572 408.382 342.701 407.551 343.512 406.447C344.324 405.343 344.779 404.017 344.817 402.647C344.817 398.947 341.491 395.947 337.388 395.947C336.4 395.945 335.42 396.124 334.496 396.474" fill="#56575C"/>
<path d="M340.276 408.827C341.572 408.382 342.701 407.551 343.512 406.447C344.324 405.343 344.779 404.017 344.817 402.647C344.817 398.947 341.491 395.947 337.388 395.947C336.4 395.945 335.42 396.124 334.496 396.474" stroke="#494B50" stroke-miterlimit="10"/>
<path d="M265.153 347.174L251.412 343.658L231.403 340.892L225.946 339.41L221.035 335.234L209.135 326.42L193.965 336.426L209.354 363.851L211.864 380.001L215.181 386.213L231.148 374.126L241.996 368.96" fill="#56575C"/>
<path d="M265.153 347.174L251.412 343.658L231.403 340.892L225.946 339.41L221.035 335.234L209.135 326.42L193.965 336.426L209.354 363.851L211.864 380.001L215.181 386.213L231.148 374.126L241.996 368.96" stroke="#494B50" stroke-miterlimit="10"/>
<path d="M216.984 388.616L234.071 375.992" stroke="#494B50" stroke-miterlimit="10"/>
<path d="M240.343 380.002L231.152 374.127L231.97 340.971" fill="#56575C"/>
<path d="M240.343 380.002L231.152 374.127L231.97 340.971" stroke="#494B50" stroke-miterlimit="10"/>
<path d="M215.184 386.212L228.238 373.028L223.545 370.746" fill="#56575C"/>
<path d="M215.184 386.212L228.238 373.028L223.545 370.746" stroke="#494B50" stroke-miterlimit="10"/>
<path d="M231.149 365.996H220.488L218.851 368.333L215.183 367.866L213.067 365.995L209.559 365.154" fill="#56575C"/>
<path d="M231.149 365.996H220.488L218.851 368.333L215.183 367.866L213.067 365.995L209.559 365.154" stroke="#494B50" stroke-miterlimit="10"/>
<path d="M16.2891 345.641L19.4831 361.347L32.398 400.86L73.8351 391.438" fill="#56575C"/>
<path d="M16.2891 345.641L19.4831 361.347L32.398 400.86L73.8351 391.438" stroke="#494B50" stroke-linecap="round" stroke-linejoin="round"/>
<path d="M156.922 403H155.516V391.727H156.922V396.68H157.328L161.984 391.727H163.75L158.547 397.141L164.203 403H162.344L157.328 397.805H156.922V403ZM167.891 403.148C166.289 403.148 165.078 402.18 165.078 400.648V400.633C165.078 399.133 166.188 398.266 168.148 398.148L170.562 398V397.234C170.562 396.195 169.93 395.633 168.672 395.633C167.664 395.633 167 396.008 166.781 396.664L166.773 396.688H165.414L165.422 396.641C165.641 395.32 166.922 394.43 168.719 394.43C170.773 394.43 171.922 395.484 171.922 397.234V403H170.562V401.758H170.438C169.906 402.656 169.023 403.148 167.891 403.148ZM166.469 400.617C166.469 401.469 167.195 401.969 168.172 401.969C169.555 401.969 170.562 401.062 170.562 399.859V399.094L168.312 399.234C167.031 399.312 166.469 399.766 166.469 400.602V400.617ZM174.562 405.812V394.578H175.922V395.922H176.047C176.562 394.984 177.5 394.43 178.672 394.43C180.805 394.43 182.203 396.156 182.203 398.781V398.797C182.203 401.438 180.812 403.148 178.672 403.148C177.516 403.148 176.508 402.57 176.047 401.672H175.922V405.812H174.562ZM178.359 401.945C179.898 401.945 180.812 400.758 180.812 398.797V398.781C180.812 396.82 179.898 395.633 178.359 395.633C176.828 395.633 175.891 396.836 175.891 398.781V398.797C175.891 400.742 176.828 401.945 178.359 401.945ZM190.031 394.578V395.703H187.305V403H185.945V395.703H183.219V394.578H190.031ZM194.188 403.148C192.586 403.148 191.375 402.18 191.375 400.648V400.633C191.375 399.133 192.484 398.266 194.445 398.148L196.859 398V397.234C196.859 396.195 196.227 395.633 194.969 395.633C193.961 395.633 193.297 396.008 193.078 396.664L193.07 396.688H191.711L191.719 396.641C191.938 395.32 193.219 394.43 195.016 394.43C197.07 394.43 198.219 395.484 198.219 397.234V403H196.859V401.758H196.734C196.203 402.656 195.32 403.148 194.188 403.148ZM192.766 400.617C192.766 401.469 193.492 401.969 194.469 401.969C195.852 401.969 196.859 401.062 196.859 399.859V399.094L194.609 399.234C193.328 399.312 192.766 399.766 192.766 400.602V400.617ZM204.633 403L208.789 391.727H210.18L214.336 403H212.859L211.727 399.773H207.242L206.109 403H204.633ZM209.422 393.547L207.656 398.578H211.312L209.547 393.547H209.422ZM218.125 397.875V396.609H219.648C221.078 396.609 221.992 395.781 221.992 394.602V394.586C221.992 393.477 221.172 392.758 219.758 392.758C218.398 392.758 217.508 393.422 217.367 394.555L217.359 394.617H215.969L215.984 394.469C216.18 392.609 217.625 391.461 219.812 391.461C221.93 391.461 223.43 392.719 223.43 394.477V394.492C223.43 395.719 222.578 396.758 221.328 397.062V397.188C222.766 397.336 223.828 398.344 223.828 399.953V399.969C223.828 401.828 222.047 403.266 219.781 403.266C217.453 403.266 215.82 402.055 215.664 400.156L215.656 400.062H217.047L217.055 400.125C217.195 401.273 218.25 401.969 219.766 401.969C221.344 401.969 222.391 401.141 222.391 399.93V399.914C222.391 398.656 221.414 397.875 219.711 397.875H218.125ZM230.742 403.266C227.68 403.266 225.766 401 225.766 397.375V397.359C225.766 393.727 227.672 391.461 230.734 391.461C233.109 391.461 234.961 392.953 235.297 395.117L235.289 395.133H233.875L233.867 395.117C233.492 393.672 232.289 392.758 230.734 392.758C228.57 392.758 227.211 394.539 227.211 397.359V397.375C227.211 400.195 228.57 401.969 230.742 401.969C232.312 401.969 233.508 401.164 233.859 399.867L233.875 399.852H235.297V399.867C234.922 401.93 233.141 403.266 230.742 403.266Z" fill="white"/>
<path d="M134.423 409.001H134.394C134.324 408.997 134.255 408.978 134.193 408.945C134.131 408.912 134.077 408.866 134.034 408.81L128.958 402.145C127.5 400.244 126 398.278 126 395.449C126 393.195 126.896 391.033 128.49 389.439C130.084 387.845 132.246 386.949 134.5 386.949C136.754 386.949 138.916 387.845 140.51 389.439C142.104 391.033 143 393.195 143 395.449C142.917 397.484 142.185 399.44 140.911 401.029C140.474 401.657 139.999 402.264 139.528 402.868C139.221 403.26 138.916 403.649 138.628 404.043C137.993 404.879 137.356 405.707 136.716 406.527C136.131 407.352 135.482 408.13 134.776 408.853C134.73 408.9 134.675 408.938 134.615 408.963C134.554 408.989 134.489 409.001 134.423 409.001ZM134.5 387.97C132.511 387.967 130.602 388.752 129.192 390.154C127.782 391.556 126.985 393.461 126.977 395.449C126.977 397.949 128.317 399.704 129.735 401.559L134.463 407.764C134.989 407.191 135.479 406.585 135.928 405.95C136.581 405.114 137.215 404.291 137.842 403.463C138.137 403.063 138.442 402.67 138.757 402.272C139.221 401.679 139.687 401.082 140.119 400.464C140.125 400.455 140.131 400.447 140.138 400.438C141.286 399.012 141.947 397.256 142.026 395.427C142.013 393.442 141.213 391.542 139.803 390.145C138.392 388.747 136.486 387.965 134.5 387.97Z" fill="white"/>
<path d="M134.499 399.573C133.657 399.563 132.837 399.304 132.142 398.828C131.446 398.353 130.907 397.683 130.592 396.902C130.277 396.121 130.199 395.264 130.37 394.44C130.54 393.615 130.95 392.859 131.549 392.267C132.148 391.675 132.909 391.273 133.735 391.112C134.562 390.951 135.418 391.038 136.195 391.362C136.972 391.686 137.636 392.233 138.104 392.934C138.571 393.635 138.821 394.458 138.821 395.3C138.814 396.439 138.355 397.53 137.545 398.331C136.734 399.132 135.639 399.579 134.499 399.573ZM134.499 392.033C133.854 392.041 133.226 392.239 132.693 392.604C132.161 392.968 131.748 393.481 131.507 394.08C131.265 394.678 131.206 395.334 131.337 395.966C131.468 396.598 131.783 397.177 132.242 397.63C132.701 398.083 133.284 398.39 133.918 398.513C134.551 398.636 135.207 398.568 135.802 398.319C136.397 398.07 136.905 397.65 137.262 397.113C137.619 396.576 137.81 395.945 137.809 395.3C137.802 394.428 137.45 393.595 136.829 392.982C136.209 392.37 135.371 392.029 134.499 392.033Z" fill="white"/>
</g>
<rect x="16" y="438" width="343" height="44" rx="10" fill="#0873F6"/>
<path d="M112.281 460.076V456.24H110.195C109.503 456.24 108.961 456.41 108.57 456.748C108.185 457.081 107.992 457.55 107.992 458.154C107.992 458.764 108.185 459.238 108.57 459.576C108.956 459.91 109.497 460.076 110.195 460.076H112.281ZM110.484 461.686L107.648 465.834H105.383L108.445 461.404C107.685 461.186 107.076 460.787 106.617 460.209C106.159 459.631 105.93 458.943 105.93 458.146C105.93 457.079 106.289 456.214 107.008 455.553C107.727 454.891 108.674 454.561 109.852 454.561H114.281V465.834H112.281V461.686H110.484ZM128.766 465.834L127.812 462.951H123.664L122.695 465.834H120.656L124.656 454.561H126.922L130.93 465.834H128.766ZM125.68 456.709L124.133 461.357H127.344L125.812 456.709H125.68ZM135.68 461.279C135.638 461.946 135.562 462.49 135.453 462.912C135.349 463.334 135.177 463.686 134.938 463.967V464.092H139.836V456.303H136L135.68 461.279ZM133.703 465.834V468.061H131.867V464.092H132.672C133.052 463.847 133.326 463.495 133.492 463.037C133.664 462.574 133.773 461.943 133.82 461.146L134.219 454.561H141.844V464.092H143.25V468.061H141.422V465.834H133.703ZM156.914 465.834H155.039V457.904H154.93L151.812 465.396H150.375L147.258 457.904H147.148V465.834H145.273V454.561H147.633L151.023 462.771H151.164L154.555 454.561H156.914V465.834ZM167.383 465.834V457.818H167.25L161.805 465.834H159.852V454.561H161.859V462.592H161.992L167.43 454.561H169.383V465.834H167.383ZM181.844 465.834H179.836V460.967H174.352V465.834H172.336V454.561H174.352V459.225H179.836V454.561H181.844V465.834ZM192.32 465.834V457.818H192.188L186.742 465.834H184.789V454.561H186.797V462.592H186.93L192.367 454.561H194.32V465.834H192.32ZM201.977 466.115C200.378 466.115 199.115 465.587 198.188 464.529C197.26 463.467 196.797 462.024 196.797 460.201C196.797 458.368 197.258 456.923 198.18 455.865C199.107 454.808 200.37 454.279 201.969 454.279C203.25 454.279 204.336 454.657 205.227 455.412C206.117 456.162 206.622 457.126 206.742 458.303H204.758C204.617 457.626 204.294 457.087 203.789 456.686C203.284 456.279 202.677 456.076 201.969 456.076C201.01 456.076 200.253 456.446 199.695 457.186C199.138 457.92 198.859 458.923 198.859 460.193C198.859 461.464 199.138 462.469 199.695 463.209C200.253 463.949 201.013 464.318 201.977 464.318C202.69 464.318 203.299 464.133 203.805 463.764C204.31 463.389 204.63 462.886 204.766 462.256H206.75C206.615 463.412 206.109 464.344 205.234 465.053C204.359 465.761 203.273 466.115 201.977 466.115ZM213.5 465.834H211.484V456.303H208.016V454.561H216.977V456.303H213.5V465.834ZM219.242 454.561H223.789C224.914 454.561 225.826 454.912 226.523 455.615C227.227 456.318 227.578 457.238 227.578 458.373C227.578 459.488 227.216 460.394 226.492 461.092C225.773 461.79 224.844 462.139 223.703 462.139H221.258V465.834H219.242V454.561ZM221.258 456.248V460.467H223.25C223.974 460.467 224.534 460.285 224.93 459.92C225.331 459.555 225.531 459.04 225.531 458.373C225.531 457.686 225.333 457.16 224.938 456.795C224.547 456.43 223.987 456.248 223.258 456.248H221.258ZM236.266 465.834L235.312 462.951H231.164L230.195 465.834H228.156L232.156 454.561H234.422L238.43 465.834H236.266ZM233.18 456.709L231.633 461.357H234.844L233.312 456.709H233.18ZM244.188 465.834H242.172V456.303H238.703V454.561H247.664V456.303H244.188V465.834ZM254.328 454.279C255.964 454.279 257.258 454.811 258.211 455.873C259.169 456.936 259.648 458.376 259.648 460.193C259.648 462.011 259.172 463.454 258.219 464.521C257.266 465.584 255.969 466.115 254.328 466.115C252.677 466.115 251.372 465.584 250.414 464.521C249.461 463.459 248.984 462.016 248.984 460.193C248.984 458.376 249.464 456.936 250.422 455.873C251.385 454.811 252.688 454.279 254.328 454.279ZM254.328 456.068C253.323 456.068 252.523 456.441 251.93 457.186C251.341 457.93 251.047 458.933 251.047 460.193C251.047 461.459 251.339 462.464 251.922 463.209C252.51 463.954 253.312 464.326 254.328 464.326C255.328 464.326 256.12 463.954 256.703 463.209C257.292 462.459 257.586 461.454 257.586 460.193C257.586 458.933 257.292 457.93 256.703 457.186C256.12 456.441 255.328 456.068 254.328 456.068ZM262.117 454.561H266.664C267.789 454.561 268.701 454.912 269.398 455.615C270.102 456.318 270.453 457.238 270.453 458.373C270.453 459.488 270.091 460.394 269.367 461.092C268.648 461.79 267.719 462.139 266.578 462.139H264.133V465.834H262.117V454.561ZM264.133 456.248V460.467H266.125C266.849 460.467 267.409 460.285 267.805 459.92C268.206 459.555 268.406 459.04 268.406 458.373C268.406 457.686 268.208 457.16 267.812 456.795C267.422 456.43 266.862 456.248 266.133 456.248H264.133Z" fill="white"/>
<rect x="16" y="490" width="343" height="44" rx="10" fill="#0873F6"/>
<path d="M142.508 512.076V508.24H140.422C139.729 508.24 139.188 508.41 138.797 508.748C138.411 509.081 138.219 509.55 138.219 510.154C138.219 510.764 138.411 511.238 138.797 511.576C139.182 511.91 139.724 512.076 140.422 512.076H142.508ZM140.711 513.686L137.875 517.834H135.609L138.672 513.404C137.911 513.186 137.302 512.787 136.844 512.209C136.385 511.631 136.156 510.943 136.156 510.146C136.156 509.079 136.516 508.214 137.234 507.553C137.953 506.891 138.901 506.561 140.078 506.561H144.508V517.834H142.508V513.686H140.711ZM156.539 517.834H151.719V506.561H156.43C157.497 506.561 158.336 506.813 158.945 507.318C159.555 507.818 159.859 508.503 159.859 509.373C159.859 509.967 159.667 510.495 159.281 510.959C158.896 511.423 158.419 511.699 157.852 511.787V511.928C158.612 512.001 159.229 512.287 159.703 512.787C160.177 513.282 160.414 513.896 160.414 514.631C160.414 515.62 160.068 516.402 159.375 516.975C158.688 517.548 157.742 517.834 156.539 517.834ZM153.734 508.162V511.303H155.68C156.393 511.303 156.935 511.17 157.305 510.904C157.68 510.633 157.867 510.243 157.867 509.732C157.867 509.238 157.698 508.852 157.359 508.576C157.021 508.3 156.547 508.162 155.938 508.162H153.734ZM153.734 516.232H156.078C156.823 516.232 157.388 516.084 157.773 515.787C158.159 515.485 158.352 515.048 158.352 514.475C158.352 513.912 158.151 513.485 157.75 513.193C157.354 512.902 156.771 512.756 156 512.756H153.734V516.232ZM167.633 506.279C169.268 506.279 170.562 506.811 171.516 507.873C172.474 508.936 172.953 510.376 172.953 512.193C172.953 514.011 172.477 515.454 171.523 516.521C170.57 517.584 169.273 518.115 167.633 518.115C165.982 518.115 164.677 517.584 163.719 516.521C162.766 515.459 162.289 514.016 162.289 512.193C162.289 510.376 162.768 508.936 163.727 507.873C164.69 506.811 165.992 506.279 167.633 506.279ZM167.633 508.068C166.628 508.068 165.828 508.441 165.234 509.186C164.646 509.93 164.352 510.933 164.352 512.193C164.352 513.459 164.643 514.464 165.227 515.209C165.815 515.954 166.617 516.326 167.633 516.326C168.633 516.326 169.424 515.954 170.008 515.209C170.596 514.459 170.891 513.454 170.891 512.193C170.891 510.933 170.596 509.93 170.008 509.186C169.424 508.441 168.633 508.068 167.633 508.068ZM177.812 513.279C177.771 513.946 177.695 514.49 177.586 514.912C177.482 515.334 177.31 515.686 177.07 515.967V516.092H181.969V508.303H178.133L177.812 513.279ZM175.836 517.834V520.061H174V516.092H174.805C175.185 515.847 175.458 515.495 175.625 515.037C175.797 514.574 175.906 513.943 175.953 513.146L176.352 506.561H183.977V516.092H185.383V520.061H183.555V517.834H175.836ZM194.938 517.834V509.818H194.805L189.359 517.834H187.406V506.561H189.414V514.592H189.547L194.984 506.561H196.938V517.834H194.938ZM204.711 517.834H202.695V508.303H199.227V506.561H208.188V508.303H204.711V517.834ZM217.75 516.092V517.834H210.453V506.561H217.75V508.303H212.469V511.295H217.461V512.936H212.469V516.092H217.75ZM229.008 517.834H226.992V508.303H223.406L223.102 513.451C223.06 514.17 222.974 514.795 222.844 515.326C222.714 515.852 222.526 516.316 222.281 516.717C222.042 517.113 221.724 517.412 221.328 517.615C220.938 517.818 220.471 517.92 219.93 517.92C219.633 517.92 219.385 517.889 219.188 517.826V516.006C219.344 516.042 219.508 516.061 219.68 516.061C219.966 516.061 220.208 515.995 220.406 515.865C220.604 515.735 220.758 515.54 220.867 515.279C220.982 515.014 221.065 514.73 221.117 514.428C221.169 514.126 221.208 513.758 221.234 513.326L221.594 506.561H229.008V517.834ZM231.953 517.834V506.561H233.969V510.467H236.359C237.505 510.467 238.438 510.808 239.156 511.49C239.88 512.167 240.242 513.053 240.242 514.146C240.242 515.245 239.891 516.136 239.188 516.818C238.484 517.495 237.57 517.834 236.445 517.834H231.953ZM233.969 516.139H235.914C236.633 516.139 237.19 515.967 237.586 515.623C237.982 515.279 238.18 514.787 238.18 514.146C238.18 513.506 237.982 513.014 237.586 512.67C237.19 512.321 236.63 512.146 235.906 512.146H233.969V516.139Z" fill="white"/>
<rect x="16.5" y="721.5" width="342" height="43" rx="9.5" stroke="#0873F6"/>
<path d="M129.172 749.115C125.977 749.115 123.992 746.85 123.992 743.209V743.193C123.992 739.537 125.969 737.279 129.164 737.279C131.727 737.279 133.672 738.904 133.938 741.209V741.271H131.961L131.953 741.24C131.664 739.904 130.586 739.021 129.164 739.021C127.25 739.021 126.055 740.623 126.055 743.186V743.201C126.055 745.771 127.25 747.373 129.172 747.373C130.602 747.373 131.664 746.576 131.953 745.334L131.961 745.295H133.938V745.35C133.641 747.607 131.773 749.115 129.172 749.115ZM142.438 740.295V741.803H139.805V748.834H137.859V741.803H135.234V740.295H142.438ZM146.469 748.975C144.844 748.975 143.664 747.975 143.664 746.42V746.404C143.664 744.881 144.828 743.99 146.906 743.865L149.102 743.732V742.998C149.102 742.146 148.547 741.678 147.5 741.678C146.609 741.678 146.031 741.998 145.836 742.561L145.828 742.592H143.992L144 742.521C144.188 741.084 145.562 740.131 147.594 740.131C149.789 740.131 151.023 741.193 151.023 742.998V748.834H149.102V747.662H148.969C148.5 748.49 147.594 748.975 146.469 748.975ZM145.586 746.326C145.586 747.053 146.203 747.482 147.062 747.482C148.234 747.482 149.102 746.717 149.102 745.701V745.014L147.18 745.139C146.094 745.209 145.586 745.607 145.586 746.311V746.326ZM160.031 740.295V741.803H157.398V748.834H155.453V741.803H152.828V740.295H160.031ZM161.867 748.834V740.295H163.812V742.873H165.5C167.492 742.873 168.766 744.037 168.766 745.85V745.865C168.766 747.678 167.492 748.834 165.5 748.834H161.867ZM165.25 744.373H163.812V747.334H165.25C166.203 747.334 166.805 746.732 166.805 745.857V745.842C166.805 744.959 166.195 744.373 165.25 744.373ZM177.422 745.146H176.984V748.834H175.039V740.295H176.984V743.725H177.406L180.219 740.295H182.453L179.008 744.248L182.617 748.834H180.266L177.422 745.146ZM186.695 745.139C186.531 747.6 185.773 748.912 184.039 748.912C183.688 748.912 183.43 748.857 183.305 748.818V747.146C183.391 747.17 183.602 747.201 183.82 747.201C184.602 747.201 184.875 746.209 184.953 744.982L185.25 740.295H191.375V748.834H189.43V741.803H186.938L186.695 745.139ZM193.898 748.834V740.295H195.82V746.014H195.977L199.578 740.295H201.5V748.834H199.578V743.084H199.414L195.82 748.834H193.898ZM207.688 749.006C205.148 749.006 203.609 747.303 203.609 744.584V744.576C203.609 741.889 205.164 740.131 207.594 740.131C210.023 740.131 211.523 741.834 211.523 744.412V745.053H205.555C205.578 746.584 206.406 747.475 207.727 747.475C208.781 747.475 209.383 746.943 209.57 746.553L209.594 746.498H211.445L211.422 746.568C211.148 747.67 210.008 749.006 207.688 749.006ZM207.617 741.654C206.531 741.654 205.719 742.389 205.57 743.748H209.625C209.492 742.35 208.703 741.654 207.617 741.654ZM219.164 748.834V745.186H215.562V748.834H213.617V740.295H215.562V743.678H219.164V740.295H221.109V748.834H219.164ZM230.156 740.295V741.803H227.523V748.834H225.578V741.803H222.953V740.295H230.156ZM235.422 749.006C232.859 749.006 231.312 747.334 231.312 744.568V744.553C231.312 741.811 232.883 740.131 235.422 740.131C237.969 740.131 239.531 741.803 239.531 744.553V744.568C239.531 747.334 237.977 749.006 235.422 749.006ZM235.422 747.428C236.773 747.428 237.539 746.373 237.539 744.576V744.561C237.539 742.764 236.766 741.701 235.422 741.701C234.07 741.701 233.297 742.764 233.297 744.561V744.576C233.297 746.373 234.07 747.428 235.422 747.428ZM243.492 748.834H241.633V740.295H244.109L246.633 746.24H246.773L249.305 740.295H251.734V748.834H249.875V743.006H249.727L247.375 748.451H245.984L243.641 743.006H243.492V748.834Z" fill="#0873F6"/>
</g>
<defs>
<clipPath id="clip0_5002_62500">
<rect width="375" height="812" fill="white"/>
</clipPath>
<clipPath id="clip1_5002_62500">
<rect width="130.426" height="100" fill="white" transform="translate(122.289 120)"/>
</clipPath>
<clipPath id="clip2_5002_62500">
<rect x="16" y="366" width="343" height="64" rx="8" fill="white"/>
</clipPath>
</defs>
</svg>
