<svg width="375" height="812" viewBox="0 0 375 812" fill="none" xmlns="http://www.w3.org/2000/svg">
<g clip-path="url(#clip0_5002_63729)">
<rect width="375" height="812" fill="#F2F8FD"/>
<g filter="url(#filter0_d_5002_63729)">
<path fill-rule="evenodd" clip-rule="evenodd" d="M0 0H375V88H0V0Z" fill="#142437"/>
</g>
<rect opacity="0.35" x="336.832" y="17.8359" width="21" height="10.3333" rx="2.16667" stroke="white"/>
<path opacity="0.4" d="M359.332 21.0039V25.0039C360.137 24.6651 360.66 23.877 360.66 23.0039C360.66 22.1308 360.137 21.3427 359.332 21.0039Z" fill="white"/>
<rect x="338.332" y="19.3359" width="18" height="7.33333" rx="1.33333" fill="white"/>
<path fill-rule="evenodd" clip-rule="evenodd" d="M323.667 19.6165C325.892 19.6166 328.031 20.4707 329.644 22.0023C329.765 22.1206 329.959 22.1191 330.079 21.999L331.239 20.8286C331.3 20.7677 331.334 20.6852 331.333 20.5994C331.333 20.5135 331.298 20.4314 331.237 20.3712C327.005 16.319 320.329 16.319 316.097 20.3712C316.035 20.4314 316.001 20.5134 316 20.5993C315.999 20.6851 316.033 20.7677 316.094 20.8286L317.255 21.999C317.374 22.1192 317.568 22.1207 317.69 22.0023C319.302 20.4706 321.442 19.6165 323.667 19.6165ZM323.667 23.4241C324.889 23.424 326.068 23.878 326.974 24.6977C327.097 24.8141 327.29 24.8116 327.409 24.6921L328.569 23.5217C328.63 23.4603 328.663 23.3771 328.663 23.2905C328.662 23.204 328.626 23.1214 328.564 23.0613C325.805 20.4969 321.532 20.4969 318.773 23.0613C318.71 23.1214 318.675 23.204 318.674 23.2906C318.673 23.3772 318.707 23.4604 318.768 23.5217L319.927 24.6921C320.047 24.8116 320.24 24.8141 320.362 24.6977C321.268 23.8785 322.446 23.4246 323.667 23.4241ZM325.989 25.9859C325.991 26.0727 325.957 26.1564 325.895 26.2172L323.89 28.2392C323.831 28.2986 323.751 28.332 323.667 28.332C323.583 28.332 323.503 28.2986 323.445 28.2392L321.439 26.2172C321.377 26.1563 321.343 26.0726 321.345 25.9859C321.347 25.8991 321.384 25.8169 321.449 25.7587C322.729 24.6765 324.605 24.6765 325.886 25.7587C325.95 25.8169 325.988 25.8992 325.989 25.9859Z" fill="white"/>
<path fill-rule="evenodd" clip-rule="evenodd" d="M310 17.668H309C308.448 17.668 308 18.1157 308 18.668V27.3346C308 27.8869 308.448 28.3346 309 28.3346H310C310.552 28.3346 311 27.8869 311 27.3346V18.668C311 18.1157 310.552 17.668 310 17.668ZM304.333 20.0013H305.333C305.886 20.0013 306.333 20.449 306.333 21.0013V27.3346C306.333 27.8869 305.886 28.3346 305.333 28.3346H304.333C303.781 28.3346 303.333 27.8869 303.333 27.3346V21.0013C303.333 20.449 303.781 20.0013 304.333 20.0013ZM300.667 22.3346H299.667C299.114 22.3346 298.667 22.7824 298.667 23.3346V27.3346C298.667 27.8869 299.114 28.3346 299.667 28.3346H300.667C301.219 28.3346 301.667 27.8869 301.667 27.3346V23.3346C301.667 22.7824 301.219 22.3346 300.667 22.3346ZM296 24.3346H295C294.448 24.3346 294 24.7824 294 25.3346V27.3346C294 27.8869 294.448 28.3346 295 28.3346H296C296.552 28.3346 297 27.8869 297 27.3346V25.3346C297 24.7824 296.552 24.3346 296 24.3346Z" fill="white"/>
<g clip-path="url(#clip2_5002_63729)">
<path d="M37.969 28.5444C36.9974 28.5444 36.1648 28.2808 35.4715 27.7534C34.783 27.2261 34.3631 26.5376 34.2117 25.688H36.0867C36.2039 26.0884 36.4358 26.4106 36.7825 26.6548C37.1341 26.894 37.5394 27.0137 37.9983 27.0137C38.7845 27.0137 39.3948 26.6621 39.8294 25.959C40.2688 25.251 40.4812 24.2622 40.4666 22.9927H40.452H40.4446H40.4373C40.2273 23.5151 39.866 23.9351 39.3533 24.2524C38.8455 24.5649 38.2522 24.7212 37.5735 24.7212C36.5677 24.7212 35.7303 24.3892 35.0613 23.7251C34.3973 23.061 34.0652 22.2285 34.0652 21.2275C34.0652 20.1582 34.4363 19.2769 35.1785 18.5835C35.9256 17.8901 36.8704 17.5435 38.013 17.5435C38.7894 17.5435 39.4803 17.7241 40.0857 18.0854C40.6961 18.4468 41.1771 18.9644 41.5286 19.6382C42.0315 20.5122 42.283 21.6084 42.283 22.9268C42.283 24.6895 41.9021 26.0664 41.1404 27.0576C40.3787 28.0488 39.3216 28.5444 37.969 28.5444ZM38.0203 23.2417C38.6258 23.2417 39.1312 23.0464 39.5364 22.6558C39.9417 22.2651 40.1443 21.7793 40.1443 21.1982C40.1443 20.6074 39.9393 20.1094 39.5291 19.7041C39.1238 19.2988 38.6258 19.0962 38.035 19.0962C37.4441 19.0962 36.9437 19.2964 36.5335 19.6968C36.1282 20.0972 35.9256 20.5879 35.9256 21.1689C35.9256 21.7646 36.1233 22.2603 36.5188 22.6558C36.9192 23.0464 37.4197 23.2417 38.0203 23.2417ZM44.6344 26.7866C44.3365 26.7866 44.0851 26.6865 43.88 26.4863C43.6798 26.2812 43.5797 26.0298 43.5797 25.7319C43.5797 25.439 43.6798 25.1899 43.88 24.9849C44.0851 24.7798 44.3365 24.6772 44.6344 24.6772C44.9273 24.6772 45.1739 24.7798 45.3741 24.9849C45.5792 25.1899 45.6817 25.439 45.6817 25.7319C45.6817 26.0298 45.5792 26.2812 45.3741 26.4863C45.1739 26.6865 44.9273 26.7866 44.6344 26.7866ZM44.6344 21.4985C44.3365 21.4985 44.0851 21.396 43.88 21.1909C43.6798 20.9858 43.5797 20.7368 43.5797 20.4438C43.5797 20.1509 43.6798 19.9019 43.88 19.6968C44.0851 19.4917 44.3365 19.3892 44.6344 19.3892C44.9273 19.3892 45.1739 19.4917 45.3741 19.6968C45.5792 19.9019 45.6817 20.1509 45.6817 20.4438C45.6817 20.7368 45.5792 20.9858 45.3741 21.1909C45.1739 21.396 44.9273 21.4985 44.6344 21.4985ZM52.1713 28.332V26.3325H46.8979V24.7065C47.767 23.0659 49.2294 20.7515 51.2851 17.7632H53.973V24.7871H55.3939V26.3325H53.973V28.332H52.1713ZM48.6117 24.7798V24.8311H52.2006V19.1621H52.1713C51.2777 20.4561 50.5624 21.5254 50.0253 22.3701C49.4882 23.2148 49.017 24.0181 48.6117 24.7798ZM58.9538 28.332V19.5649H58.9099L56.1779 21.4839V19.7041L58.9392 17.7632H60.8068V28.332H58.9538Z" fill="white"/>
</g>
<path d="M166.611 62.9209H166.948L170.647 58.4312H173.108L168.816 63.6021L173.401 69H170.728L166.963 64.6714H166.611V69H164.399V58.4312H166.611V62.9209ZM177.429 67.5205C177.922 67.5205 178.335 67.3813 178.667 67.103C178.999 66.8247 179.165 66.4805 179.165 66.0703V65.4771L177.532 65.5796C176.624 65.6431 176.169 65.9678 176.169 66.5537C176.169 66.8516 176.284 67.0884 176.514 67.2642C176.748 67.4351 177.053 67.5205 177.429 67.5205ZM176.726 69.1245C175.945 69.1245 175.308 68.9023 174.814 68.458C174.326 68.0137 174.082 67.4253 174.082 66.6929C174.082 65.9653 174.351 65.394 174.888 64.979C175.43 64.5591 176.204 64.3198 177.209 64.2612L179.165 64.144V63.4849C179.165 63.1479 179.048 62.8892 178.813 62.7085C178.579 62.5229 178.242 62.4302 177.803 62.4302C177.012 62.4302 176.526 62.6792 176.345 63.1772H174.382C174.451 62.4302 174.802 61.8394 175.437 61.4048C176.077 60.9653 176.904 60.7456 177.92 60.7456C178.984 60.7456 179.807 60.9849 180.388 61.4634C180.974 61.9419 181.267 62.6157 181.267 63.4849V69H179.202V67.9453H179.07C178.86 68.3164 178.547 68.6069 178.132 68.8169C177.717 69.022 177.249 69.1245 176.726 69.1245ZM188.174 60.7896C189.199 60.7896 190.005 61.1582 190.591 61.8955C191.177 62.6328 191.47 63.6533 191.47 64.957C191.47 66.2559 191.179 67.2764 190.598 68.0186C190.017 68.7559 189.221 69.1245 188.21 69.1245C187.634 69.1245 187.134 69.0049 186.709 68.7656C186.284 68.5264 185.972 68.1919 185.771 67.7622H185.64V71.6807H183.508V60.9214H185.574V62.2471H185.706C185.925 61.793 186.252 61.4365 186.687 61.1777C187.122 60.9189 187.617 60.7896 188.174 60.7896ZM187.449 67.3447C188.025 67.3447 188.474 67.1348 188.796 66.7148C189.119 66.29 189.28 65.7041 189.28 64.957C189.28 64.2148 189.116 63.6338 188.789 63.2139C188.467 62.7891 188.022 62.5767 187.456 62.5767C186.89 62.5767 186.44 62.7915 186.108 63.2212C185.781 63.646 185.618 64.2271 185.618 64.9644C185.618 65.7017 185.781 66.2827 186.108 66.7075C186.436 67.1323 186.882 67.3447 187.449 67.3447ZM199.263 60.9214V62.5986H196.846V69H194.714V62.5986H192.297V60.9214H199.263ZM208.674 69V60.9214H210.806V69H208.674ZM204.324 64.9058H203.057V67.3228H204.324C204.729 67.3228 205.051 67.2129 205.291 66.9932C205.535 66.7686 205.657 66.4756 205.657 66.1143C205.657 65.7529 205.535 65.4624 205.291 65.2427C205.046 65.0181 204.724 64.9058 204.324 64.9058ZM200.925 69V60.9214H203.057V63.2505H204.661C205.613 63.2505 206.37 63.5117 206.931 64.0342C207.498 64.5518 207.781 65.25 207.781 66.1289C207.781 67.0078 207.498 67.7061 206.931 68.2236C206.37 68.7412 205.613 69 204.661 69H200.925Z" fill="white"/>
<path d="M190 765C208.532 765 223.794 750.996 225.781 732.994C226.023 730.798 227.791 729 230 729H375V812H0V729H150C152.209 729 153.977 730.798 154.219 732.994C156.206 750.996 171.468 765 190 765Z" fill="#142437"/>
<path d="M33.0264 778H31.9326V770.954H33.0264V774.016H33.2754L36.0195 770.954H37.3135L34.2129 774.357L37.5674 778H36.1807L33.2803 774.87H33.0264V778ZM39.8281 778.088C38.8174 778.088 38.0703 777.473 38.0703 776.511V776.501C38.0703 775.554 38.7832 775.002 40.0479 774.924L41.4834 774.841V774.372C41.4834 773.791 41.1172 773.469 40.3994 773.469C39.8135 773.469 39.4277 773.684 39.3008 774.06L39.2959 774.079H38.2754L38.2803 774.045C38.4072 773.176 39.2422 772.595 40.4482 772.595C41.7812 772.595 42.5332 773.259 42.5332 774.372V778H41.4834V777.248H41.4004C41.0879 777.785 40.5312 778.088 39.8281 778.088ZM39.125 776.467C39.125 776.955 39.54 777.243 40.1113 777.243C40.9023 777.243 41.4834 776.726 41.4834 776.042V775.588L40.1895 775.671C39.457 775.715 39.125 775.979 39.125 776.457V776.467ZM44.125 779.768V772.697H45.1846V773.532H45.2627C45.5703 772.951 46.1514 772.604 46.8936 772.604C48.2314 772.604 49.0908 773.674 49.0908 775.344V775.354C49.0908 777.033 48.2412 778.088 46.8936 778.088C46.166 778.088 45.5459 777.731 45.2627 777.16H45.1846V779.768H44.125ZM46.5957 777.185C47.4795 777.185 48.0117 776.491 48.0117 775.354V775.344C48.0117 774.201 47.4795 773.513 46.5957 773.513C45.7119 773.513 45.165 774.211 45.165 775.344V775.354C45.165 776.486 45.7119 777.185 46.5957 777.185ZM54.1006 772.697V773.532H52.4307V778H51.3711V773.532H49.7012V772.697H54.1006ZM56.6641 778.088C55.6533 778.088 54.9062 777.473 54.9062 776.511V776.501C54.9062 775.554 55.6191 775.002 56.8838 774.924L58.3193 774.841V774.372C58.3193 773.791 57.9531 773.469 57.2354 773.469C56.6494 773.469 56.2637 773.684 56.1367 774.06L56.1318 774.079H55.1113L55.1162 774.045C55.2432 773.176 56.0781 772.595 57.2842 772.595C58.6172 772.595 59.3691 773.259 59.3691 774.372V778H58.3193V777.248H58.2363C57.9238 777.785 57.3672 778.088 56.6641 778.088ZM55.9609 776.467C55.9609 776.955 56.376 777.243 56.9473 777.243C57.7383 777.243 58.3193 776.726 58.3193 776.042V775.588L57.0254 775.671C56.293 775.715 55.9609 775.979 55.9609 776.457V776.467Z" fill="white"/>
<path d="M52.833 759.264C52.833 760.368 51.9375 761.264 50.833 761.264H38C36.8954 761.264 36 760.368 36 759.264V753.751H52.833V759.264ZM50.833 748.172C51.9375 748.172 52.833 749.067 52.833 750.172V751.001H36V750.172C36 749.067 36.8954 748.172 38 748.172H50.833Z" fill="white"/>
<path d="M54.3035 757.589C54.492 757.533 54.6229 757.353 54.6223 757.15C54.6158 755.123 54.6565 750.802 54.6826 748.303C54.6934 747.261 53.8565 746.411 52.815 746.411C49.6852 746.412 43.5649 746.414 41.5207 746.42C41.3175 746.421 41.1386 746.553 41.0846 746.742C41.0576 746.836 41.0109 746.918 40.9522 746.989C40.7846 747.191 40.5083 747.287 40.2399 747.21C39.9408 747.124 39.7461 746.852 39.7452 746.556C39.745 746.492 39.7533 746.428 39.7719 746.365C39.9923 745.596 40.7095 745.057 41.5163 745.054C45.3943 745.042 49.2723 745.019 53.1503 745.014C54.6996 745.012 55.9538 746.27 55.9563 747.819C55.9615 750.928 55.9785 754.037 55.9884 757.146C55.991 757.953 55.4562 758.674 54.6885 758.899C54.3259 759.005 53.947 758.798 53.8408 758.436C53.7752 758.21 53.8411 757.985 53.9806 757.815C54.0639 757.714 54.1679 757.628 54.3035 757.589Z" fill="white"/>
<path d="M103.391 778L105.935 770.954H107.116L109.66 778H108.508L107.873 776.096H105.178L104.538 778H103.391ZM106.481 772.189L105.471 775.217H107.58L106.564 772.189H106.481ZM112.097 774.87V773.947H113.039C113.874 773.947 114.406 773.479 114.406 772.8V772.79C114.406 772.15 113.918 771.745 113.093 771.745C112.287 771.745 111.76 772.131 111.691 772.79L111.687 772.824H110.637L110.646 772.746C110.744 771.535 111.691 770.783 113.127 770.783C114.514 770.783 115.49 771.564 115.49 772.678V772.688C115.49 773.459 114.948 774.108 114.167 774.289V774.372C115.08 774.465 115.734 775.095 115.734 776.081V776.091C115.734 777.282 114.587 778.171 113.103 778.171C111.589 778.171 110.539 777.37 110.456 776.154V776.105H111.521L111.525 776.14C111.599 776.809 112.209 777.209 113.103 777.209C114.016 777.209 114.621 776.74 114.621 776.037V776.027C114.621 775.314 114.055 774.87 113.068 774.87H112.097ZM120.095 778.171C118.137 778.171 116.916 776.755 116.916 774.484V774.475C116.916 772.199 118.132 770.783 120.09 770.783C121.643 770.783 122.834 771.765 123.02 773.166L123.015 773.19H121.931V773.176C121.726 772.312 121.018 771.75 120.09 771.75C118.825 771.75 118.034 772.8 118.034 774.475V774.484C118.034 776.154 118.825 777.204 120.095 777.204C121.027 777.204 121.726 776.706 121.926 775.91L121.936 775.891H123.02V775.92C122.814 777.272 121.667 778.171 120.095 778.171Z" fill="#9EA7B2"/>
<path d="M116.165 742.168C117.957 742.168 119.415 743.626 119.415 745.418V757.334L121.998 757.219C122.61 757.219 123.081 756.748 123.081 756.136V751.803C122.483 751.803 121.998 751.317 121.998 750.719V749.001L120.148 747.151L121.264 745.735L124.831 749.303V756.251C124.831 758.033 123.363 759.501 121.581 759.501H119.415V761.501C119.415 762.605 118.519 763.501 117.415 763.501H108.414C107.31 763.501 106.414 762.605 106.414 761.501V745.418C106.414 743.626 107.873 742.168 109.665 742.168H116.165ZM113.811 752.459C113.362 752.459 112.998 752.823 112.998 753.271C112.998 753.72 113.362 754.084 113.811 754.084C114.259 754.084 114.623 753.72 114.623 753.271C114.623 752.823 114.259 752.459 113.811 752.459ZM116.436 752.459C115.987 752.459 115.623 752.823 115.623 753.271C115.623 753.72 115.987 754.084 116.436 754.084C116.884 754.084 117.248 753.72 117.248 753.271C117.248 752.823 116.884 752.459 116.436 752.459ZM109.664 744.334C109.067 744.334 108.581 744.82 108.581 745.418V749.293C108.581 749.845 109.029 750.293 109.581 750.293H116.248C116.8 750.293 117.248 749.845 117.248 749.293V745.418C117.248 744.82 116.761 744.334 116.164 744.334H109.664Z" fill="#9EA7B2"/>
<path d="M238.026 778H236.933V770.954H238.026V774.016H238.275L241.02 770.954H242.313L239.213 774.357L242.567 778H241.181L238.28 774.87H238.026V778ZM245.502 778.103C243.944 778.103 242.992 777.062 242.992 775.354V775.344C242.992 773.64 243.949 772.595 245.502 772.595C247.05 772.595 248.007 773.635 248.007 775.344V775.354C248.007 777.062 247.055 778.103 245.502 778.103ZM245.502 777.219C246.41 777.219 246.928 776.525 246.928 775.354V775.344C246.928 774.167 246.41 773.479 245.502 773.479C244.589 773.479 244.076 774.167 244.076 775.344V775.354C244.076 776.53 244.589 777.219 245.502 777.219ZM252.831 778V775.676H250.424V778H249.364V772.697H250.424V774.836H252.831V772.697H253.886V778H252.831ZM259.462 772.697V773.532H257.792V778H256.732V773.532H255.062V772.697H259.462ZM262.025 778.088C261.015 778.088 260.268 777.473 260.268 776.511V776.501C260.268 775.554 260.98 775.002 262.245 774.924L263.681 774.841V774.372C263.681 773.791 263.314 773.469 262.597 773.469C262.011 773.469 261.625 773.684 261.498 774.06L261.493 774.079H260.473L260.478 774.045C260.604 773.176 261.439 772.595 262.646 772.595C263.979 772.595 264.73 773.259 264.73 774.372V778H263.681V777.248H263.598C263.285 777.785 262.729 778.088 262.025 778.088ZM261.322 776.467C261.322 776.955 261.737 777.243 262.309 777.243C263.1 777.243 263.681 776.726 263.681 776.042V775.588L262.387 775.671C261.654 775.715 261.322 775.979 261.322 776.457V776.467ZM267.646 775.656H267.377V778H266.317V772.697H267.377V774.865H267.641L269.521 772.697H270.756L268.505 775.168L270.854 778H269.545L267.646 775.656ZM275.702 772.697V773.532H274.032V778H272.973V773.532H271.303V772.697H275.702ZM276.884 778V772.697H277.943V774.343H278.983C280.214 774.343 281 775.051 281 776.164V776.174C281 777.292 280.214 778 278.983 778H276.884ZM281.894 778V772.697H282.953V778H281.894ZM278.896 775.178H277.943V777.165H278.896C279.535 777.165 279.936 776.765 279.936 776.174V776.164C279.936 775.568 279.53 775.178 278.896 775.178Z" fill="#9EA7B2"/>
<path d="M258.084 749.245L256.368 750.322C256.959 751.767 257.557 752.94 258.756 754.404C259.879 755.776 260.889 756.612 262.226 757.522L263.502 756.18L269.528 760.108L267.73 762.377C267.275 762.941 266.555 763.205 265.852 763.093C265.13 762.959 264.244 762.786 263.616 762.555C260.859 761.546 258.123 759.488 255.894 756.766C253.665 754.045 252.187 750.956 251.741 748.054C251.639 747.393 251.624 746.489 251.655 745.757C251.684 745.045 252.082 744.412 252.704 744.075L255.231 742.724L258.084 749.245ZM263.905 755.76C264.351 755.332 265.029 755.267 265.548 755.605L269.315 758.06C269.846 758.404 270.038 759.064 269.831 759.623L263.905 755.76ZM255.689 742.524C256.312 742.367 256.989 742.688 257.234 743.307L258.88 747.463C259.093 747.997 258.936 748.597 258.506 748.963L255.689 742.524Z" fill="#9EA7B2"/>
<path d="M319.933 778V770.954H324.405V771.896H321.026V773.957H324.225V774.865H321.026V777.058H324.405V778H319.933ZM325.958 778V772.697H327.018V777.155H328.834V772.697H329.894V777.155H331.71V772.697H332.77V777.165H333.614V779.392H332.623V778H325.958ZM335.758 771.711C335.421 771.711 335.143 771.438 335.143 771.101C335.143 770.769 335.421 770.495 335.758 770.495C336.09 770.495 336.363 770.769 336.363 771.101C336.363 771.438 336.09 771.711 335.758 771.711ZM337.994 771.711C337.662 771.711 337.384 771.438 337.384 771.101C337.384 770.769 337.662 770.495 337.994 770.495C338.331 770.495 338.609 770.769 338.609 771.101C338.609 771.438 338.331 771.711 337.994 771.711ZM336.91 778.103C335.357 778.103 334.42 777.043 334.42 775.363V775.358C334.42 773.703 335.377 772.595 336.856 772.595C338.336 772.595 339.244 773.664 339.244 775.256V775.627H335.484C335.504 776.643 336.061 777.233 336.935 777.233C337.613 777.233 338.019 776.896 338.146 776.623L338.165 776.584L339.186 776.579L339.176 776.623C339 777.321 338.268 778.103 336.91 778.103ZM336.861 773.464C336.139 773.464 335.592 773.957 335.499 774.87H338.194C338.111 773.923 337.579 773.464 336.861 773.464Z" fill="#9EA7B2"/>
<path d="M330.5 753C330.5 752.175 329.825 751.5 329 751.5C328.175 751.5 327.5 752.175 327.5 753C327.5 753.825 328.175 754.5 329 754.5C329.825 754.5 330.5 753.825 330.5 753Z" fill="#9EA7B2"/>
<path d="M334.5 754.5C333.675 754.5 333 753.825 333 753C333 752.175 333.675 751.5 334.5 751.5C335.325 751.5 336 752.175 336 753C336 753.825 335.325 754.5 334.5 754.5Z" fill="#9EA7B2"/>
<path d="M323.5 751.5C324.325 751.5 325 752.175 325 753C325 753.825 324.325 754.5 323.5 754.5C322.675 754.5 322 753.825 322 753C322 752.175 322.675 751.5 323.5 751.5Z" fill="#9EA7B2"/>
<circle cx="329" cy="753" r="11" stroke="#9EA7B2" stroke-width="1.75"/>
<rect x="162" y="701" width="56" height="56" rx="28" fill="#0873F6"/>
<path d="M197.135 718C197.612 718 198 718.387 198 718.864C198 719.342 197.612 719.729 197.135 719.729H183.002C182.546 719.729 182.176 720.099 182.176 720.555C182.176 721.011 182.546 721.381 183.002 721.381H197.176C199.385 721.381 201.176 723.172 201.176 725.381V727H197.264C195.721 727 194.47 728.251 194.47 729.794C194.47 731.337 195.721 732.588 197.264 732.588H201.176V735C201.176 737.209 199.385 739 197.176 739H183.176C180.967 739 179.176 737.209 179.176 735V722C179.176 719.791 180.967 718 183.176 718H197.135ZM201.176 731.273H197.404C196.556 731.273 195.867 730.585 195.867 729.736C195.867 728.888 196.556 728.2 197.404 728.2H201.176V731.273Z" fill="white"/>
<path d="M252.5 799H122.5C121.119 799 120 800.119 120 801.5C120 802.881 121.119 804 122.5 804H252.5C253.881 804 255 802.881 255 801.5C255 800.119 253.881 799 252.5 799Z" fill="#BFCBD7"/>
<g clip-path="url(#clip3_5002_63729)">
<path d="M348.168 104H26.8316C20.8495 104 16 108.432 16 113.9V292.1C16 297.568 20.8495 302 26.8316 302H348.168C354.151 302 359 297.568 359 292.1V113.9C359 108.432 354.151 104 348.168 104Z" fill="url(#paint0_linear_5002_63729)"/>
<g clip-path="url(#clip4_5002_63729)">
<path d="M58.6768 124.355C60.2973 124.355 61.611 125.67 61.6113 127.29V141.203C62.6454 141.317 63.5777 141.922 64.1045 142.851L65.1055 144.622C65.4867 145.296 66.1949 145.708 66.959 145.708H67.1787C67.5636 145.708 67.8641 145.405 67.8643 145.012V138.994C67.8644 137.524 68.4379 136.113 69.46 135.071L72.4971 131.986C72.7829 131.696 73.2512 131.696 73.5371 131.986C73.8161 132.27 73.8167 132.726 73.5381 133.01L71.9971 134.581C72.4746 135.377 72.6439 136.342 72.4551 137.262C72.2716 138.158 71.7645 138.952 71.0381 139.491C70.5298 139.868 69.9325 140.105 69.3135 140.179V141.699L69.3154 145.012C69.3152 146.205 68.3507 147.185 67.1797 147.186H66.96C65.6781 147.185 64.4886 146.489 63.8477 145.36L62.8467 143.589C62.5784 143.117 62.1251 142.793 61.6113 142.69V149.063C61.6113 150.684 60.2974 151.998 58.6768 151.998H47.0479C45.4275 151.998 44.1133 150.684 44.1133 149.063V127.29C44.1136 125.67 45.4276 124.356 47.0479 124.355H58.6768ZM54.3506 140.295C53.5756 140.297 52.803 140.382 52.0459 140.549C51.0145 140.769 50.0233 141.15 49.1084 141.678C48.3896 142.072 47.776 142.635 47.3193 143.319C47.171 143.558 47.0661 143.821 47.0098 144.097C46.9589 144.353 46.9663 144.617 47.0322 144.869C47.1996 145.481 47.707 145.995 48.498 146.355C49.4098 146.735 50.3905 146.92 51.377 146.896C52.1535 146.893 52.9277 146.808 53.6865 146.642C54.7156 146.425 55.7048 146.046 56.6172 145.521C57.3363 145.126 57.9506 144.563 58.4082 143.88C58.558 143.64 58.6643 143.375 58.7217 143.098C58.7731 142.84 58.7657 142.574 58.6992 142.32C58.533 141.709 58.0247 141.195 57.2314 140.834C56.3189 140.455 55.3376 140.271 54.3506 140.295ZM48.1621 127.36C47.5059 127.36 46.9738 127.893 46.9736 128.549V134.002C46.9736 134.658 47.5058 135.19 48.1621 135.19H57.5645C58.2206 135.19 58.7529 134.658 58.7529 134.002V128.549C58.7528 127.893 58.2205 127.361 57.5645 127.36H48.1621Z" fill="white"/>
<path d="M70.5925 123.986V122.629C70.5925 122.272 70.6573 121.884 70.6903 121.528H70.6255C70.4304 121.884 70.2672 122.176 70.0722 122.564L69.193 123.956V123.988L70.5925 123.986ZM71.2747 126.607C70.8981 126.608 70.5925 126.303 70.5925 125.926V125.025H68.4738C68.0978 125.025 67.793 124.72 67.793 124.344V124.12L70.261 120.314C70.3865 120.121 70.6015 120.004 70.8322 120.004H71.3441C71.7201 120.004 72.025 120.309 72.025 120.685V123.954H72.3046C72.5996 123.954 72.8387 124.193 72.8387 124.488C72.8387 124.783 72.5996 125.022 72.3046 125.022H72.025V125.926C72.025 126.301 71.7209 126.606 71.3454 126.607L71.2747 126.607Z" fill="white"/>
<path d="M63.25 126.613V126.047C63.25 125.869 63.3195 125.698 63.4437 125.571L64.0677 124.932C65.1145 123.837 65.9973 122.967 65.9973 122C65.9973 121.485 65.6373 121.1 64.9505 121.1C64.7135 121.111 64.4793 121.15 64.2523 121.213C63.9619 121.295 63.6361 121.148 63.5597 120.857L63.5462 120.805C63.4881 120.583 63.5953 120.349 63.8106 120.27C64.2793 120.098 64.7758 120.008 65.2779 120.004C67.0767 120.004 67.6332 120.97 67.6332 121.905C67.6332 123.129 66.6847 124.128 65.7362 125L65.2453 125.45V125.482H67.2874C67.5507 125.482 67.764 125.696 67.764 125.959V126.166C67.764 126.429 67.5507 126.642 67.2874 126.642H63.2792C63.2631 126.642 63.25 126.629 63.25 126.613Z" fill="white"/>
</g>
<path d="M205.455 143.199C203.65 143.199 202.232 142.15 201.986 140.68L201.98 140.645H203.053L203.064 140.686C203.328 141.617 204.26 142.227 205.455 142.227C207.014 142.227 208.033 141.049 208.15 139.15H204.383V138.201H208.133C207.963 136.42 206.961 135.318 205.461 135.318C204.289 135.318 203.352 135.998 203.07 137.029L203.053 137.094H201.98L201.986 137.059C202.256 135.447 203.662 134.346 205.461 134.346C207.787 134.346 209.246 136.051 209.246 138.77V138.781C209.246 141.494 207.787 143.199 205.455 143.199ZM212.422 140.527C212.287 142.268 211.748 143.059 210.693 143.059C210.477 143.059 210.312 143.023 210.23 142.994V142.074C210.283 142.092 210.441 142.115 210.594 142.115C211.174 142.115 211.408 141.383 211.473 140.445L211.742 136.684H215.873V143H214.854V137.527H212.656L212.422 140.527ZM220.461 143.111C218.656 143.111 217.566 141.846 217.566 139.865V139.859C217.566 137.908 218.68 136.572 220.396 136.572C222.113 136.572 223.156 137.85 223.156 139.736V140.135H218.609C218.639 141.441 219.359 142.203 220.484 142.203C221.34 142.203 221.867 141.799 222.037 141.418L222.061 141.365H223.08L223.068 141.412C222.852 142.268 221.949 143.111 220.461 143.111ZM220.391 137.48C219.453 137.48 218.738 138.119 218.627 139.32H222.119C222.014 138.072 221.322 137.48 220.391 137.48ZM226.191 140.123H225.869V143H224.85V136.684H225.869V139.326H226.191L228.635 136.684H229.859L227.018 139.66L229.971 143H228.664L226.191 140.123ZM235.66 136.684V137.527H233.615V143H232.596V137.527H230.551V136.684H235.66ZM237.137 145.109V136.684H238.156V137.691H238.25C238.637 136.988 239.34 136.572 240.219 136.572C241.818 136.572 242.867 137.867 242.867 139.836V139.848C242.867 141.828 241.824 143.111 240.219 143.111C239.352 143.111 238.596 142.678 238.25 142.004H238.156V145.109H237.137ZM239.984 142.209C241.139 142.209 241.824 141.318 241.824 139.848V139.836C241.824 138.365 241.139 137.475 239.984 137.475C238.836 137.475 238.133 138.377 238.133 139.836V139.848C238.133 141.307 238.836 142.209 239.984 142.209ZM247.174 143.111C245.375 143.111 244.262 141.869 244.262 139.848V139.836C244.262 137.809 245.375 136.572 247.174 136.572C248.973 136.572 250.086 137.809 250.086 139.836V139.848C250.086 141.869 248.973 143.111 247.174 143.111ZM247.174 142.209C248.369 142.209 249.043 141.336 249.043 139.848V139.836C249.043 138.342 248.369 137.475 247.174 137.475C245.979 137.475 245.305 138.342 245.305 139.836V139.848C245.305 141.336 245.979 142.209 247.174 142.209ZM255.928 143V140.141H252.799V143H251.779V136.684H252.799V139.297H255.928V136.684H256.947V143H255.928ZM263.1 143V140.141H259.971V143H258.951V136.684H259.971V139.297H263.1V136.684H264.119V143H263.1ZM266.123 143V136.684H267.143V138.711H268.379C269.826 138.711 270.752 139.543 270.752 140.85V140.861C270.752 142.168 269.826 143 268.379 143H266.123ZM271.854 143V136.684H272.873V143H271.854ZM268.379 139.555H267.143V142.156H268.379C269.211 142.156 269.732 141.641 269.732 140.861V140.85C269.732 140.064 269.205 139.555 268.379 139.555ZM277.508 135.805C276.301 135.805 275.498 134.973 275.498 133.883H276.412C276.412 134.521 276.828 135.113 277.508 135.113C278.199 135.113 278.604 134.521 278.604 133.883H279.518C279.518 134.973 278.715 135.805 277.508 135.805ZM274.877 143V136.684H275.896V141.395H275.99L279.113 136.684H280.133V143H279.113V138.289H279.02L275.896 143H274.877ZM286.859 140.123H286.537V143H285.518V136.684H286.537V139.326H286.859L289.303 136.684H290.527L287.686 139.66L290.639 143H289.332L286.859 140.123ZM294.354 143.111C292.555 143.111 291.441 141.869 291.441 139.848V139.836C291.441 137.809 292.555 136.572 294.354 136.572C296.152 136.572 297.266 137.809 297.266 139.836V139.848C297.266 141.869 296.152 143.111 294.354 143.111ZM294.354 142.209C295.549 142.209 296.223 141.336 296.223 139.848V139.836C296.223 138.342 295.549 137.475 294.354 137.475C293.158 137.475 292.484 138.342 292.484 139.836V139.848C292.484 141.336 293.158 142.209 294.354 142.209ZM298.959 143V136.684H299.979V142.156H302.352V136.684H303.371V142.156H305.744V136.684H306.764V143H298.959ZM311.352 143.111C309.547 143.111 308.457 141.846 308.457 139.865V139.859C308.457 137.908 309.57 136.572 311.287 136.572C313.004 136.572 314.047 137.85 314.047 139.736V140.135H309.5C309.529 141.441 310.25 142.203 311.375 142.203C312.23 142.203 312.758 141.799 312.928 141.418L312.951 141.365H313.971L313.959 141.412C313.742 142.268 312.84 143.111 311.352 143.111ZM311.281 137.48C310.344 137.48 309.629 138.119 309.518 139.32H313.01C312.904 138.072 312.213 137.48 311.281 137.48ZM317.047 140.527C316.912 142.268 316.373 143.059 315.318 143.059C315.102 143.059 314.938 143.023 314.855 142.994V142.074C314.908 142.092 315.066 142.115 315.219 142.115C315.799 142.115 316.033 141.383 316.098 140.445L316.367 136.684H320.498V143H319.479V137.527H317.281L317.047 140.527ZM325.086 143.111C323.281 143.111 322.191 141.846 322.191 139.865V139.859C322.191 137.908 323.305 136.572 325.021 136.572C326.738 136.572 327.781 137.85 327.781 139.736V140.135H323.234C323.264 141.441 323.984 142.203 325.109 142.203C325.965 142.203 326.492 141.799 326.662 141.418L326.686 141.365H327.705L327.693 141.412C327.477 142.268 326.574 143.111 325.086 143.111ZM325.016 137.48C324.078 137.48 323.363 138.119 323.252 139.32H326.744C326.639 138.072 325.947 137.48 325.016 137.48ZM330.816 140.123H330.494V143H329.475V136.684H330.494V139.326H330.816L333.26 136.684H334.484L331.643 139.66L334.596 143H333.289L330.816 140.123Z" fill="#9EA7B2"/>
<g filter="url(#filter1_d_5002_63729)">
<path d="M330.297 193C330.297 193 335.482 196.907 334.964 203.744C334.445 210.581 330.297 214 330.297 214" stroke="white" stroke-width="1.5" stroke-linecap="round"/>
<path d="M326.148 196.906C326.148 196.906 329.404 199.359 329.079 203.653C328.753 207.946 326.148 210.092 326.148 210.092" stroke="white" stroke-width="1.5" stroke-linecap="round"/>
<path d="M322 200.812C322 200.812 323.327 201.812 323.194 203.561C323.061 205.31 322 206.185 322 206.185" stroke="white" stroke-width="1.5" stroke-linecap="round"/>
</g>
<path d="M41.8013 252L47.0806 241.724V241.591H40.8052V240.022H48.9648V241.632L43.752 252H41.8013ZM55.1821 252.291C52.418 252.291 50.7578 249.875 50.7578 246.015V245.999C50.7578 242.139 52.418 239.731 55.1821 239.731C57.938 239.731 59.6064 242.139 59.6064 245.999V246.015C59.6064 249.875 57.938 252.291 55.1821 252.291ZM55.1821 250.747C56.7842 250.747 57.7305 248.945 57.7305 246.015V245.999C57.7305 243.068 56.7842 241.284 55.1821 241.284C53.5718 241.284 52.6338 243.068 52.6338 245.999V246.015C52.6338 248.945 53.5718 250.747 55.1821 250.747ZM66.2222 252.291C63.458 252.291 61.7979 249.875 61.7979 246.015V245.999C61.7979 242.139 63.458 239.731 66.2222 239.731C68.978 239.731 70.6465 242.139 70.6465 245.999V246.015C70.6465 249.875 68.978 252.291 66.2222 252.291ZM66.2222 250.747C67.8242 250.747 68.7705 248.945 68.7705 246.015V245.999C68.7705 243.068 67.8242 241.284 66.2222 241.284C64.6118 241.284 63.6738 243.068 63.6738 245.999V246.015C63.6738 248.945 64.6118 250.747 66.2222 250.747ZM77.1875 252.291C74.8301 252.291 73.2031 250.821 73.0371 248.879L73.0288 248.771H74.772L74.7803 248.837C74.938 249.892 75.8926 250.73 77.2041 250.73C78.6816 250.73 79.7109 249.676 79.7109 248.173V248.157C79.7109 246.679 78.665 245.633 77.2207 245.633C76.4902 245.633 75.8677 245.849 75.3945 246.281C75.1787 246.472 74.9878 246.704 74.8467 246.978H73.2446L73.8423 240.022H80.8066V241.599H75.3032L74.938 245.417H75.0791C75.5854 244.612 76.5234 244.147 77.6274 244.147C79.877 244.147 81.4873 245.824 81.4873 248.124V248.14C81.4873 250.597 79.7109 252.291 77.1875 252.291ZM92.5771 239.731C94.9761 239.731 97.2422 241.425 97.2422 245.824V245.841C97.2422 249.9 95.4741 252.291 92.5107 252.291C90.3857 252.291 88.8086 251.045 88.4185 249.236L88.3936 249.136H90.2446L90.2695 249.219C90.6099 250.132 91.3901 250.713 92.5107 250.713C94.5278 250.713 95.3745 248.746 95.4658 246.355C95.4658 246.264 95.4741 246.173 95.4741 246.082H95.3081C94.8765 247.044 93.7891 247.899 92.1621 247.899C89.8794 247.899 88.2358 246.206 88.2358 243.915V243.898C88.2358 241.491 90.062 239.731 92.5771 239.731ZM92.5688 246.397C94.0049 246.397 95.1089 245.351 95.1089 243.907V243.898C95.1089 242.438 94.0049 241.292 92.5938 241.292C91.1909 241.292 90.0703 242.413 90.0703 243.849V243.865C90.0703 245.334 91.1245 246.397 92.5688 246.397ZM103.899 252.224C101.243 252.224 99.3672 250.796 99.3672 248.763V248.746C99.3672 247.235 100.455 246.032 102.023 245.691V245.65C100.679 245.268 99.7988 244.264 99.7988 242.994V242.977C99.7988 241.143 101.517 239.798 103.899 239.798C106.29 239.798 108 241.143 108 242.977V242.994C108 244.264 107.128 245.268 105.784 245.65V245.691C107.353 246.032 108.44 247.235 108.44 248.746V248.763C108.44 250.796 106.564 252.224 103.899 252.224ZM103.899 245.027C105.244 245.027 106.157 244.247 106.157 243.151V243.135C106.157 242.039 105.236 241.275 103.899 241.275C102.563 241.275 101.642 242.039 101.642 243.135V243.151C101.642 244.247 102.563 245.027 103.899 245.027ZM103.899 250.73C105.435 250.73 106.522 249.858 106.522 248.646V248.63C106.522 247.401 105.443 246.513 103.899 246.513C102.364 246.513 101.285 247.401 101.285 248.63V248.646C101.285 249.858 102.372 250.73 103.899 250.73ZM111.312 252L116.591 241.724V241.591H110.316V240.022H118.476V241.632L113.263 252H111.312ZM124.892 252.291C122.485 252.291 120.227 250.597 120.227 246.189V246.173C120.227 242.122 121.995 239.731 124.958 239.731C127.075 239.731 128.652 240.977 129.051 242.786L129.067 242.886H127.225L127.191 242.803C126.859 241.89 126.079 241.309 124.95 241.309C122.933 241.309 122.095 243.276 122.003 245.667C121.995 245.758 121.995 245.849 121.995 245.94H122.153C122.593 244.978 123.672 244.123 125.307 244.123C127.59 244.123 129.225 245.816 129.225 248.107V248.124C129.225 250.531 127.407 252.291 124.892 252.291ZM122.36 248.124C122.36 249.584 123.464 250.73 124.875 250.73C126.278 250.73 127.391 249.609 127.391 248.173V248.157C127.391 246.688 126.345 245.625 124.892 245.625C123.456 245.625 122.36 246.671 122.36 248.115V248.124ZM140.39 252.291C138.032 252.291 136.405 250.821 136.239 248.879L136.231 248.771H137.974L137.982 248.837C138.14 249.892 139.095 250.73 140.406 250.73C141.884 250.73 142.913 249.676 142.913 248.173V248.157C142.913 246.679 141.867 245.633 140.423 245.633C139.692 245.633 139.07 245.849 138.597 246.281C138.381 246.472 138.19 246.704 138.049 246.978H136.447L137.044 240.022H144.009V241.599H138.505L138.14 245.417H138.281C138.788 244.612 139.726 244.147 140.83 244.147C143.079 244.147 144.689 245.824 144.689 248.124V248.14C144.689 250.597 142.913 252.291 140.39 252.291ZM152.525 252V249.618H146.682V248.041C148.259 245.334 150.019 242.504 151.67 240.022H154.318V248.041H155.97V249.618H154.318V252H152.525ZM148.466 248.074H152.55V241.591H152.442C151.156 243.525 149.695 245.857 148.466 247.958V248.074ZM162.453 252.224C159.896 252.224 158.228 250.821 158.07 248.837L158.062 248.738H159.838L159.847 248.821C159.963 249.908 160.967 250.672 162.453 250.672C163.914 250.672 164.902 249.85 164.902 248.671V248.655C164.902 247.302 163.922 246.546 162.329 246.546H160.868V245.102H162.271C163.64 245.102 164.57 244.297 164.57 243.185V243.168C164.57 242.006 163.79 241.325 162.437 241.325C161.108 241.325 160.179 242.031 160.062 243.16L160.054 243.243H158.311L158.319 243.151C158.502 241.134 160.096 239.798 162.437 239.798C164.819 239.798 166.379 241.076 166.379 242.927V242.944C166.379 244.43 165.317 245.426 163.856 245.733V245.774C165.616 245.932 166.794 246.995 166.794 248.671V248.688C166.794 250.747 164.993 252.224 162.453 252.224ZM169.16 252V250.738L173.136 246.563C174.722 244.911 175.178 244.297 175.178 243.326V243.301C175.178 242.13 174.373 241.267 173.062 241.267C171.717 241.267 170.82 242.147 170.82 243.458L170.812 243.483H169.069L169.052 243.467C169.061 241.275 170.754 239.731 173.161 239.731C175.394 239.731 177.038 241.151 177.038 243.126V243.151C177.038 244.513 176.407 245.559 174.232 247.717L171.692 250.249V250.415H177.229V252H169.16ZM187.248 252V241.939H187.106L184.093 244.089V242.263L187.248 240.022H189.107V252H187.248ZM196.719 252.224C194.162 252.224 192.494 250.821 192.336 248.837L192.328 248.738H194.104L194.112 248.821C194.229 249.908 195.233 250.672 196.719 250.672C198.18 250.672 199.167 249.85 199.167 248.671V248.655C199.167 247.302 198.188 246.546 196.594 246.546H195.133V245.102H196.536C197.906 245.102 198.835 244.297 198.835 243.185V243.168C198.835 242.006 198.055 241.325 196.702 241.325C195.374 241.325 194.444 242.031 194.328 243.16L194.32 243.243H192.577L192.585 243.151C192.768 241.134 194.361 239.798 196.702 239.798C199.084 239.798 200.645 241.076 200.645 242.927V242.944C200.645 244.43 199.583 245.426 198.122 245.733V245.774C199.881 245.932 201.06 246.995 201.06 248.671V248.688C201.06 250.747 199.259 252.224 196.719 252.224ZM208.921 252V249.618H203.077V248.041C204.654 245.334 206.414 242.504 208.066 240.022H210.714V248.041H212.366V249.618H210.714V252H208.921ZM204.862 248.074H208.946V241.591H208.838C207.551 243.525 206.09 245.857 204.862 247.958V248.074ZM219.056 252.291C216.649 252.291 214.391 250.597 214.391 246.189V246.173C214.391 242.122 216.159 239.731 219.123 239.731C221.239 239.731 222.816 240.977 223.215 242.786L223.231 242.886H221.389L221.355 242.803C221.023 241.89 220.243 241.309 219.114 241.309C217.097 241.309 216.259 243.276 216.167 245.667C216.159 245.758 216.159 245.849 216.159 245.94H216.317C216.757 244.978 217.836 244.123 219.471 244.123C221.754 244.123 223.389 245.816 223.389 248.107V248.124C223.389 250.531 221.571 252.291 219.056 252.291ZM216.524 248.124C216.524 249.584 217.628 250.73 219.04 250.73C220.442 250.73 221.555 249.609 221.555 248.173V248.157C221.555 246.688 220.509 245.625 219.056 245.625C217.62 245.625 216.524 246.671 216.524 248.115V248.124Z" fill="white"/>
<path d="M44.2251 190V179.939H44.084L41.0708 182.089V180.263L44.2251 178.022H46.0845V190H44.2251ZM58.2783 190.291C55.9209 190.291 54.2939 188.821 54.1279 186.879L54.1196 186.771H55.8628L55.8711 186.837C56.0288 187.892 56.9834 188.73 58.2949 188.73C59.7725 188.73 60.8018 187.676 60.8018 186.173V186.157C60.8018 184.679 59.7559 183.633 58.3115 183.633C57.5811 183.633 56.9585 183.849 56.4854 184.281C56.2695 184.472 56.0786 184.704 55.9375 184.978H54.3354L54.9331 178.022H61.8975V179.599H56.394L56.0288 183.417H56.1699C56.6763 182.612 57.6143 182.147 58.7183 182.147C60.9678 182.147 62.5781 183.824 62.5781 186.124V186.14C62.5781 188.597 60.8018 190.291 58.2783 190.291ZM69.144 190.291C66.3799 190.291 64.7197 187.875 64.7197 184.015V183.999C64.7197 180.139 66.3799 177.731 69.144 177.731C71.8999 177.731 73.5684 180.139 73.5684 183.999V184.015C73.5684 187.875 71.8999 190.291 69.144 190.291ZM69.144 188.747C70.7461 188.747 71.6924 186.945 71.6924 184.015V183.999C71.6924 181.068 70.7461 179.284 69.144 179.284C67.5337 179.284 66.5957 181.068 66.5957 183.999V184.015C66.5957 186.945 67.5337 188.747 69.144 188.747ZM80.1841 190.291C77.4199 190.291 75.7598 187.875 75.7598 184.015V183.999C75.7598 180.139 77.4199 177.731 80.1841 177.731C82.9399 177.731 84.6084 180.139 84.6084 183.999V184.015C84.6084 187.875 82.9399 190.291 80.1841 190.291ZM80.1841 188.747C81.7861 188.747 82.7324 186.945 82.7324 184.015V183.999C82.7324 181.068 81.7861 179.284 80.1841 179.284C78.5737 179.284 77.6357 181.068 77.6357 183.999V184.015C77.6357 186.945 78.5737 188.747 80.1841 188.747ZM95.8726 190.291C93.1084 190.291 91.4482 187.875 91.4482 184.015V183.999C91.4482 180.139 93.1084 177.731 95.8726 177.731C98.6284 177.731 100.297 180.139 100.297 183.999V184.015C100.297 187.875 98.6284 190.291 95.8726 190.291ZM95.8726 188.747C97.4746 188.747 98.4209 186.945 98.4209 184.015V183.999C98.4209 181.068 97.4746 179.284 95.8726 179.284C94.2622 179.284 93.3242 181.068 93.3242 183.999V184.015C93.3242 186.945 94.2622 188.747 95.8726 188.747ZM106.913 190.291C104.148 190.291 102.488 187.875 102.488 184.015V183.999C102.488 180.139 104.148 177.731 106.913 177.731C109.668 177.731 111.337 180.139 111.337 183.999V184.015C111.337 187.875 109.668 190.291 106.913 190.291ZM106.913 188.747C108.515 188.747 109.461 186.945 109.461 184.015V183.999C109.461 181.068 108.515 179.284 106.913 179.284C105.302 179.284 104.364 181.068 104.364 183.999V184.015C104.364 186.945 105.302 188.747 106.913 188.747ZM117.953 190.291C115.188 190.291 113.528 187.875 113.528 184.015V183.999C113.528 180.139 115.188 177.731 117.953 177.731C120.708 177.731 122.377 180.139 122.377 183.999V184.015C122.377 187.875 120.708 190.291 117.953 190.291ZM117.953 188.747C119.555 188.747 120.501 186.945 120.501 184.015V183.999C120.501 181.068 119.555 179.284 117.953 179.284C116.342 179.284 115.404 181.068 115.404 183.999V184.015C115.404 186.945 116.342 188.747 117.953 188.747ZM129.499 193.005V180.985H131.3V182.405H131.433C131.956 181.417 132.944 180.828 134.206 180.828C136.48 180.828 137.941 182.646 137.941 185.484V185.501C137.941 188.356 136.497 190.149 134.206 190.149C132.969 190.149 131.915 189.543 131.433 188.572H131.3V193.005H129.499ZM133.699 188.614C135.202 188.614 136.106 187.435 136.106 185.501V185.484C136.106 183.542 135.202 182.372 133.699 182.372C132.197 182.372 131.267 183.559 131.267 185.484V185.501C131.267 187.427 132.197 188.614 133.699 188.614ZM140.805 193.171C140.581 193.171 140.315 193.154 140.083 193.129V191.71C140.257 191.735 140.481 191.743 140.688 191.743C141.527 191.743 142.025 191.386 142.299 190.473L142.432 190.008L139.161 180.985H141.104L143.361 188.19H143.519L145.769 180.985H147.661L144.308 190.349C143.544 192.507 142.631 193.171 140.805 193.171ZM153.389 190.174C150.558 190.174 149.072 188.265 149.072 184.688V184.671C149.072 179.939 150.467 177.848 153.729 177.707L154.725 177.665C155.456 177.632 156.335 177.499 157.083 177.217V178.719C156.767 178.96 155.821 179.159 154.816 179.201L153.837 179.242C151.77 179.325 150.857 180.271 150.542 182.612L150.517 182.787H150.658C151.255 181.708 152.318 181.118 153.704 181.118C156.111 181.118 157.672 182.828 157.672 185.501V185.518C157.672 188.381 156.037 190.174 153.389 190.174ZM153.372 188.672C154.933 188.672 155.837 187.51 155.837 185.542V185.526C155.837 183.658 154.933 182.587 153.372 182.587C151.803 182.587 150.907 183.658 150.907 185.526V185.542C150.907 187.51 151.803 188.672 153.372 188.672ZM160.967 190.125C160.278 190.125 159.747 189.593 159.747 188.921C159.747 188.24 160.278 187.709 160.967 187.709C161.656 187.709 162.179 188.24 162.179 188.921C162.179 189.593 161.656 190.125 160.967 190.125Z" fill="white"/>
<path d="M44.541 275.199C42.2441 275.199 40.8086 273.5 40.8086 270.781V270.77C40.8086 268.045 42.2383 266.346 44.5352 266.346C46.3164 266.346 47.7051 267.465 47.957 269.088L47.9512 269.1H46.8906L46.8848 269.088C46.6035 268.004 45.7012 267.318 44.5352 267.318C42.9121 267.318 41.8926 268.654 41.8926 270.77V270.781C41.8926 272.896 42.9121 274.227 44.541 274.227C45.7188 274.227 46.6152 273.623 46.8789 272.65L46.8906 272.639H47.957V272.65C47.6758 274.197 46.3398 275.199 44.541 275.199ZM54.0508 268.684V269.527H52.0059V275H50.9863V269.527H48.9414V268.684H54.0508ZM57.168 275.111C55.9668 275.111 55.0586 274.385 55.0586 273.236V273.225C55.0586 272.1 55.8906 271.449 57.3613 271.361L59.1719 271.25V270.676C59.1719 269.896 58.6973 269.475 57.7539 269.475C56.998 269.475 56.5 269.756 56.3359 270.248L56.3301 270.266H55.3105L55.3164 270.23C55.4805 269.24 56.4414 268.572 57.7891 268.572C59.3301 268.572 60.1914 269.363 60.1914 270.676V275H59.1719V274.068H59.0781C58.6797 274.742 58.0176 275.111 57.168 275.111ZM56.1016 273.213C56.1016 273.852 56.6465 274.227 57.3789 274.227C58.416 274.227 59.1719 273.547 59.1719 272.645V272.07L57.4844 272.176C56.5234 272.234 56.1016 272.574 56.1016 273.201V273.213ZM66.7422 268.684V269.527H64.6973V275H63.6777V269.527H61.6328V268.684H66.7422ZM68.7578 277.215C68.623 277.215 68.4473 277.203 68.3066 277.18V276.342C68.4297 276.365 68.5879 276.371 68.7285 276.371C69.3086 276.371 69.6602 276.107 69.8887 275.381L70.0059 275.006L67.668 268.684H68.7578L70.4922 273.881H70.5859L72.3145 268.684H73.3867L70.9199 275.387C70.3984 276.805 69.877 277.215 68.7578 277.215ZM77.2012 275.111C75.4316 275.111 74.3008 273.828 74.3008 271.824V271.812C74.3008 269.85 75.4258 268.572 77.1953 268.572C78.7305 268.572 79.6504 269.457 79.8379 270.582L79.8438 270.617H78.8301L78.8242 270.6C78.666 269.979 78.1035 269.475 77.1953 269.475C76.0586 269.475 75.3438 270.389 75.3438 271.812V271.824C75.3438 273.277 76.0703 274.209 77.1953 274.209C78.0449 274.209 78.584 273.834 78.8184 273.131L78.8301 273.096L79.8379 273.09L79.8262 273.154C79.5684 274.297 78.7188 275.111 77.2012 275.111ZM82.2227 270.523C81.8066 270.523 81.4609 270.178 81.4609 269.762C81.4609 269.34 81.8066 269 82.2227 269C82.6445 269 82.9844 269.34 82.9844 269.762C82.9844 270.178 82.6445 270.523 82.2227 270.523ZM82.2227 275.059C81.8066 275.059 81.4609 274.713 81.4609 274.297C81.4609 273.875 81.8066 273.535 82.2227 273.535C82.6445 273.535 82.9844 273.875 82.9844 274.297C82.9844 274.713 82.6445 275.059 82.2227 275.059Z" fill="#9EA7B2"/>
<path d="M89.7422 275.111C88.541 275.111 87.6328 274.385 87.6328 273.236V273.225C87.6328 272.1 88.4648 271.449 89.9355 271.361L91.7461 271.25V270.676C91.7461 269.896 91.2715 269.475 90.3281 269.475C89.5723 269.475 89.0742 269.756 88.9102 270.248L88.9043 270.266H87.8848L87.8906 270.23C88.0547 269.24 89.0156 268.572 90.3633 268.572C91.9043 268.572 92.7656 269.363 92.7656 270.676V275H91.7461V274.068H91.6523C91.2539 274.742 90.5918 275.111 89.7422 275.111ZM88.6758 273.213C88.6758 273.852 89.2207 274.227 89.9531 274.227C90.9902 274.227 91.7461 273.547 91.7461 272.645V272.07L90.0586 272.176C89.0977 272.234 88.6758 272.574 88.6758 273.201V273.213ZM96.082 272.123H95.7598V275H94.7402V268.684H95.7598V271.326H96.082L98.5254 268.684H99.75L96.9082 271.66L99.8613 275H98.5547L96.082 272.123ZM105.551 268.684V269.527H103.506V275H102.486V269.527H100.441V268.684H105.551ZM107.021 275V268.684H108.041V273.395H108.135L111.258 268.684H112.277V275H111.258V270.289H111.164L108.041 275H107.021ZM114.287 275V268.684H116.965C118.16 268.684 118.857 269.334 118.857 270.324V270.336C118.857 270.963 118.418 271.555 117.826 271.678V271.771C118.629 271.883 119.139 272.445 119.139 273.178V273.189C119.139 274.285 118.336 275 116.977 275H114.287ZM115.307 271.355H116.654C117.475 271.355 117.844 271.039 117.844 270.441V270.43C117.844 269.891 117.527 269.527 116.818 269.527H115.307V271.355ZM115.307 274.156H116.936C117.709 274.156 118.102 273.805 118.102 273.172V273.16C118.102 272.492 117.65 272.199 116.742 272.199H115.307V274.156ZM125.01 275V272.141H121.881V275H120.861V268.684H121.881V271.297H125.01V268.684H126.029V275H125.01ZM129.773 275.111C128.572 275.111 127.664 274.385 127.664 273.236V273.225C127.664 272.1 128.496 271.449 129.967 271.361L131.777 271.25V270.676C131.777 269.896 131.303 269.475 130.359 269.475C129.604 269.475 129.105 269.756 128.941 270.248L128.936 270.266H127.916L127.922 270.23C128.086 269.24 129.047 268.572 130.395 268.572C131.936 268.572 132.797 269.363 132.797 270.676V275H131.777V274.068H131.684C131.285 274.742 130.623 275.111 129.773 275.111ZM128.707 273.213C128.707 273.852 129.252 274.227 129.984 274.227C131.021 274.227 131.777 273.547 131.777 272.645V272.07L130.09 272.176C129.129 272.234 128.707 272.574 128.707 273.201V273.213Z" fill="#75CE72"/>
<path d="M41.2129 214.67H40.2344V212.051H40.8613C41.4766 211.723 41.7051 210.973 41.7695 209.865L42.0918 204.545H47.4414V212.051H48.4961V214.67H47.5176V213H41.2129V214.67ZM42.7598 209.889C42.7012 210.844 42.584 211.482 42.168 211.98V212.051H46.3867V205.494H43.0352L42.7598 209.889ZM52.5098 213.111C50.7109 213.111 49.5977 211.869 49.5977 209.848V209.836C49.5977 207.809 50.7109 206.572 52.5098 206.572C54.3086 206.572 55.4219 207.809 55.4219 209.836V209.848C55.4219 211.869 54.3086 213.111 52.5098 213.111ZM52.5098 212.209C53.7051 212.209 54.3789 211.336 54.3789 209.848V209.836C54.3789 208.342 53.7051 207.475 52.5098 207.475C51.3145 207.475 50.6406 208.342 50.6406 209.836V209.848C50.6406 211.336 51.3145 212.209 52.5098 212.209ZM59.7051 213.111C57.9355 213.111 56.8047 211.828 56.8047 209.824V209.812C56.8047 207.85 57.9297 206.572 59.6992 206.572C61.2344 206.572 62.1543 207.457 62.3418 208.582L62.3477 208.617H61.334L61.3281 208.6C61.1699 207.979 60.6074 207.475 59.6992 207.475C58.5625 207.475 57.8477 208.389 57.8477 209.812V209.824C57.8477 211.277 58.5742 212.209 59.6992 212.209C60.5488 212.209 61.0879 211.834 61.3223 211.131L61.334 211.096L62.3418 211.09L62.3301 211.154C62.0723 212.297 61.2227 213.111 59.7051 213.111ZM68.2305 206.684V207.527H66.1855V213H65.166V207.527H63.1211V206.684H68.2305ZM70.2461 215.215C70.1113 215.215 69.9355 215.203 69.7949 215.18V214.342C69.918 214.365 70.0762 214.371 70.2168 214.371C70.7969 214.371 71.1484 214.107 71.377 213.381L71.4941 213.006L69.1562 206.684H70.2461L71.9805 211.881H72.0742L73.8027 206.684H74.875L72.4082 213.387C71.8867 214.805 71.3652 215.215 70.2461 215.215ZM76.334 213V206.684H81.4434V213H80.4238V207.527H77.3535V213H76.334ZM87.5957 213V210.141H84.4668V213H83.4473V206.684H84.4668V209.297H87.5957V206.684H88.6152V213H87.5957ZM92.3594 213.111C91.1582 213.111 90.25 212.385 90.25 211.236V211.225C90.25 210.1 91.082 209.449 92.5527 209.361L94.3633 209.25V208.676C94.3633 207.896 93.8887 207.475 92.9453 207.475C92.1895 207.475 91.6914 207.756 91.5273 208.248L91.5215 208.266H90.502L90.5078 208.23C90.6719 207.24 91.6328 206.572 92.9805 206.572C94.5215 206.572 95.3828 207.363 95.3828 208.676V213H94.3633V212.068H94.2695C93.8711 212.742 93.209 213.111 92.3594 213.111ZM91.293 211.213C91.293 211.852 91.8379 212.227 92.5703 212.227C93.6074 212.227 94.3633 211.547 94.3633 210.645V210.07L92.6758 210.176C91.7148 210.234 91.293 210.574 91.293 211.201V211.213ZM100.709 213V210.738H99.6367L98.0254 213H96.8242L98.5879 210.551C97.6973 210.299 97.1582 209.643 97.1582 208.781V208.77C97.1582 207.475 98.084 206.684 99.5312 206.684H101.729V213H100.709ZM99.5312 209.895H100.709V207.527H99.5312C98.6992 207.527 98.2012 207.984 98.2012 208.746V208.758C98.2012 209.42 98.7051 209.895 99.5312 209.895ZM109.697 213.111C107.928 213.111 106.797 211.828 106.797 209.824V209.812C106.797 207.85 107.922 206.572 109.691 206.572C111.227 206.572 112.146 207.457 112.334 208.582L112.34 208.617H111.326L111.32 208.6C111.162 207.979 110.6 207.475 109.691 207.475C108.555 207.475 107.84 208.389 107.84 209.812V209.824C107.84 211.277 108.566 212.209 109.691 212.209C110.541 212.209 111.08 211.834 111.314 211.131L111.326 211.096L112.334 211.09L112.322 211.154C112.064 212.297 111.215 213.111 109.697 213.111ZM114.309 215.215C114.174 215.215 113.998 215.203 113.857 215.18V214.342C113.98 214.365 114.139 214.371 114.279 214.371C114.859 214.371 115.211 214.107 115.439 213.381L115.557 213.006L113.219 206.684H114.309L116.043 211.881H116.137L117.865 206.684H118.938L116.471 213.387C115.949 214.805 115.428 215.215 114.309 215.215ZM121.416 213H120.396V206.684H121.633L123.883 211.582H123.977L126.238 206.684H127.422V213H126.402V208.506H126.291L124.299 212.824H123.514L121.527 208.506H121.416V213ZM130.451 213H129.432V206.684H130.668L132.918 211.582H133.012L135.273 206.684H136.457V213H135.438V208.506H135.326L133.334 212.824H132.549L130.562 208.506H130.451V213ZM140.207 213.111C139.006 213.111 138.098 212.385 138.098 211.236V211.225C138.098 210.1 138.93 209.449 140.4 209.361L142.211 209.25V208.676C142.211 207.896 141.736 207.475 140.793 207.475C140.037 207.475 139.539 207.756 139.375 208.248L139.369 208.266H138.35L138.355 208.23C138.52 207.24 139.48 206.572 140.828 206.572C142.369 206.572 143.23 207.363 143.23 208.676V213H142.211V212.068H142.117C141.719 212.742 141.057 213.111 140.207 213.111ZM139.141 211.213C139.141 211.852 139.686 212.227 140.418 212.227C141.455 212.227 142.211 211.547 142.211 210.645V210.07L140.523 210.176C139.562 210.234 139.141 210.574 139.141 211.201V211.213ZM152.729 213V210.141H149.6V213H148.58V206.684H149.6V209.297H152.729V206.684H153.748V213H152.729ZM157.492 213.111C156.291 213.111 155.383 212.385 155.383 211.236V211.225C155.383 210.1 156.215 209.449 157.686 209.361L159.496 209.25V208.676C159.496 207.896 159.021 207.475 158.078 207.475C157.322 207.475 156.824 207.756 156.66 208.248L156.654 208.266H155.635L155.641 208.23C155.805 207.24 156.766 206.572 158.113 206.572C159.654 206.572 160.516 207.363 160.516 208.676V213H159.496V212.068H159.402C159.004 212.742 158.342 213.111 157.492 213.111ZM156.426 211.213C156.426 211.852 156.971 212.227 157.703 212.227C158.74 212.227 159.496 211.547 159.496 210.645V210.07L157.809 210.176C156.848 210.234 156.426 210.574 156.426 211.201V211.213ZM167.207 210.123H166.885V213H165.865V206.684H166.885V209.326H167.207L169.65 206.684H170.875L168.033 209.66L170.986 213H169.68L167.207 210.123ZM173.957 213.111C172.756 213.111 171.848 212.385 171.848 211.236V211.225C171.848 210.1 172.68 209.449 174.15 209.361L175.961 209.25V208.676C175.961 207.896 175.486 207.475 174.543 207.475C173.787 207.475 173.289 207.756 173.125 208.248L173.119 208.266H172.1L172.105 208.23C172.27 207.24 173.23 206.572 174.578 206.572C176.119 206.572 176.98 207.363 176.98 208.676V213H175.961V212.068H175.867C175.469 212.742 174.807 213.111 173.957 213.111ZM172.891 211.213C172.891 211.852 173.436 212.227 174.168 212.227C175.205 212.227 175.961 211.547 175.961 210.645V210.07L174.273 210.176C173.312 210.234 172.891 210.574 172.891 211.201V211.213ZM178.961 215.109V206.684H179.98V207.691H180.074C180.461 206.988 181.164 206.572 182.043 206.572C183.643 206.572 184.691 207.867 184.691 209.836V209.848C184.691 211.828 183.648 213.111 182.043 213.111C181.176 213.111 180.42 212.678 180.074 212.004H179.98V215.109H178.961ZM181.809 212.209C182.963 212.209 183.648 211.318 183.648 209.848V209.836C183.648 208.365 182.963 207.475 181.809 207.475C180.66 207.475 179.957 208.377 179.957 209.836V209.848C179.957 211.307 180.66 212.209 181.809 212.209ZM190.562 206.684V207.527H188.518V213H187.498V207.527H185.453V206.684H190.562ZM194.383 213.111C192.578 213.111 191.488 211.846 191.488 209.865V209.859C191.488 207.908 192.602 206.572 194.318 206.572C196.035 206.572 197.078 207.85 197.078 209.736V210.135H192.531C192.561 211.441 193.281 212.203 194.406 212.203C195.262 212.203 195.789 211.799 195.959 211.418L195.982 211.365H197.002L196.99 211.412C196.773 212.268 195.871 213.111 194.383 213.111ZM194.312 207.48C193.375 207.48 192.66 208.119 192.549 209.32H196.041C195.936 208.072 195.244 207.48 194.312 207.48Z" fill="#9EA7B2"/>
</g>
</g>
<defs>
<filter id="filter0_d_5002_63729" x="-20" y="-20" width="415" height="128" filterUnits="userSpaceOnUse" color-interpolation-filters="sRGB">
<feFlood flood-opacity="0" result="BackgroundImageFix"/>
<feColorMatrix in="SourceAlpha" type="matrix" values="0 0 0 0 0 0 0 0 0 0 0 0 0 0 0 0 0 0 127 0" result="hardAlpha"/>
<feOffset dy="0.5"/>
<feColorMatrix type="matrix" values="0 0 0 0 0 0 0 0 0 0 0 0 0 0 0 0 0 0 0.3 0"/>
<feBlend mode="normal" in2="BackgroundImageFix" result="effect1_dropShadow_5002_63729"/>
<feBlend mode="normal" in="SourceGraphic" in2="effect1_dropShadow_5002_63729" result="shape"/>
</filter>
<clipPath id="bgblur_1_5002_63729_clip_path" transform="translate(20 20)"><path fill-rule="evenodd" clip-rule="evenodd" d="M0 0H375V88H0V0Z"/>
</clipPath><filter id="filter1_d_5002_63729" x="319.25" y="192.25" width="18.5" height="26.5" filterUnits="userSpaceOnUse" color-interpolation-filters="sRGB">
<feFlood flood-opacity="0" result="BackgroundImageFix"/>
<feColorMatrix in="SourceAlpha" type="matrix" values="0 0 0 0 0 0 0 0 0 0 0 0 0 0 0 0 0 0 127 0" result="hardAlpha"/>
<feOffset dy="2"/>
<feGaussianBlur stdDeviation="1"/>
<feComposite in2="hardAlpha" operator="out"/>
<feColorMatrix type="matrix" values="0 0 0 0 0 0 0 0 0 0 0 0 0 0 0 0 0 0 0.25 0"/>
<feBlend mode="normal" in2="BackgroundImageFix" result="effect1_dropShadow_5002_63729"/>
<feBlend mode="normal" in="SourceGraphic" in2="effect1_dropShadow_5002_63729" result="shape"/>
</filter>
<linearGradient id="paint0_linear_5002_63729" x1="187.5" y1="104" x2="187.5" y2="302" gradientUnits="userSpaceOnUse">
<stop stop-color="#355174"/>
<stop offset="1" stop-color="#102949"/>
</linearGradient>
<clipPath id="clip0_5002_63729">
<rect width="375" height="812" fill="white"/>
</clipPath>
<clipPath id="clip2_5002_63729">
<rect width="54" height="18" fill="white" transform="translate(21 14.332)"/>
</clipPath>
<clipPath id="clip3_5002_63729">
<rect width="343" height="198" fill="white" transform="translate(16 104)"/>
</clipPath>
<clipPath id="clip4_5002_63729">
<rect width="41.7362" height="32" fill="white" transform="translate(32 120)"/>
</clipPath>
</defs>
</svg>
